<?xml version="1.0" encoding="UTF-8"?>
<svg xmlns="http://www.w3.org/2000/svg" xmlns:xlink="http://www.w3.org/1999/xlink" width="181.5pt" height="159.000002pt" viewBox="0 0 181.5 159.000002" version="1.2">
<defs>
<clipPath id="clip1">
  <path d="M 0.320312 0 L 180.683594 0 L 180.683594 158.007812 L 0.320312 158.007812 Z M 0.320312 0 "/>
</clipPath>
<clipPath id="clip2">
  <path d="M 32.105469 51.542969 L 156.894531 51.542969 L 156.894531 158.007812 L 32.105469 158.007812 Z M 32.105469 51.542969 "/>
</clipPath>
<clipPath id="clip3">
  <path d="M 24.109375 0 L 151 0 L 151 154 L 24.109375 154 Z M 24.109375 0 "/>
</clipPath>
</defs>
<g id="surface1">
<g clip-path="url(#clip1)" clip-rule="nonzero">
<path style=" stroke:none;fill-rule:nonzero;fill:rgb(100%,100%,100%);fill-opacity:1;" d="M 0.320312 0 L 181.179688 0 L 181.179688 165.914062 L 0.320312 165.914062 Z M 0.320312 0 "/>
<path style=" stroke:none;fill-rule:nonzero;fill:rgb(100%,100%,100%);fill-opacity:1;" d="M 0.320312 0 L 181.179688 0 L 181.179688 158.441406 L 0.320312 158.441406 Z M 0.320312 0 "/>
<path style=" stroke:none;fill-rule:nonzero;fill:rgb(100%,100%,100%);fill-opacity:1;" d="M 0.320312 0 L 181.179688 0 L 181.179688 158.441406 L 0.320312 158.441406 Z M 0.320312 0 "/>
</g>
<g clip-path="url(#clip2)" clip-rule="nonzero">
<path style=" stroke:none;fill-rule:nonzero;fill:rgb(32.548523%,76.078796%,54.508972%);fill-opacity:1;" d="M 156.898438 51.671875 L 136.308594 51.671875 L 136.308594 159.984375 L 156.898438 159.984375 Z M 122.222656 75.261719 L 101.640625 75.261719 L 101.640625 159.984375 L 122.222656 159.984375 Z M 87.554688 92.511719 L 66.972656 92.511719 L 66.972656 159.984375 L 87.554688 159.984375 Z M 52.886719 159.984375 L 32.300781 159.984375 L 32.300781 105.570312 L 52.886719 105.570312 L 52.886719 159.984375 "/>
</g>
<g clip-path="url(#clip3)" clip-rule="nonzero">
<path style=" stroke:none;fill-rule:nonzero;fill:rgb(5.879211%,5.488586%,4.708862%);fill-opacity:1;" d="M 141.699219 4.429688 C 133.027344 17.617188 117.957031 35.316406 94.058594 48.34375 C 70.0625 61.433594 46.925781 64.539062 30.324219 64.539062 C 28.539062 64.539062 26.851562 64.507812 25.226562 64.441406 C 24.589844 64.410156 24.109375 63.898438 24.140625 63.257812 C 24.175781 62.617188 24.714844 62.167969 25.320312 62.167969 C 41.765625 62.808594 66.875 60.601562 93.003906 46.359375 C 117.0625 33.234375 132.007812 15.277344 140.449219 2.253906 L 121.171875 2.253906 C 120.535156 2.253906 120.058594 1.738281 120.058594 1.132812 C 120.058594 0.523438 120.570312 0.0117188 121.171875 0.0117188 L 142.839844 0.0117188 C 143.476562 0.0117188 143.957031 0.523438 143.957031 1.132812 L 143.957031 23.25 C 143.957031 23.890625 143.449219 24.371094 142.839844 24.371094 C 142.238281 24.371094 141.726562 23.855469 141.726562 23.25 L 141.726562 4.429688 Z M 148.738281 151.597656 L 130.414062 151.597656 L 130.414062 45.558594 L 148.738281 45.558594 Z M 149.851562 43.285156 L 129.269531 43.285156 C 128.632812 43.285156 128.15625 43.796875 128.15625 44.40625 L 128.15625 152.71875 C 128.15625 153.359375 128.660156 153.839844 129.269531 153.839844 L 149.851562 153.839844 C 150.488281 153.839844 150.96875 153.324219 150.96875 152.71875 L 150.96875 44.4375 C 151.003906 43.796875 150.488281 43.285156 149.851562 43.285156 Z M 114.066406 151.597656 L 95.742188 151.597656 L 95.742188 69.148438 L 114.066406 69.148438 Z M 115.183594 66.875 L 94.601562 66.875 C 93.960938 66.875 93.484375 67.386719 93.484375 67.996094 L 93.484375 152.71875 C 93.484375 153.359375 93.992188 153.839844 94.601562 153.839844 L 115.183594 153.839844 C 115.820312 153.839844 116.296875 153.324219 116.296875 152.71875 L 116.296875 67.996094 C 116.328125 67.386719 115.820312 66.875 115.183594 66.875 Z M 79.398438 151.597656 L 61.078125 151.597656 L 61.078125 86.398438 L 79.398438 86.398438 Z M 80.515625 84.125 L 59.925781 84.125 C 59.289062 84.125 58.8125 84.640625 58.8125 85.246094 L 58.8125 152.71875 C 58.8125 153.359375 59.324219 153.839844 59.925781 153.839844 L 80.515625 153.839844 C 81.152344 153.839844 81.628906 153.324219 81.628906 152.71875 L 81.628906 85.246094 C 81.660156 84.640625 81.152344 84.125 80.515625 84.125 Z M 44.730469 151.597656 L 26.40625 151.597656 L 26.40625 99.457031 L 44.730469 99.457031 Z M 45.84375 97.183594 L 25.257812 97.183594 C 24.621094 97.183594 24.144531 97.699219 24.144531 98.304688 L 24.144531 152.71875 C 24.144531 153.359375 24.652344 153.839844 25.257812 153.839844 L 45.84375 153.839844 C 46.480469 153.839844 46.960938 153.324219 46.960938 152.71875 L 46.960938 98.304688 C 46.992188 97.699219 46.480469 97.183594 45.84375 97.183594 "/>
</g>
</g>
</svg>
