<?xml version="1.0" encoding="UTF-8"?>
<svg xmlns="http://www.w3.org/2000/svg" xmlns:xlink="http://www.w3.org/1999/xlink" width="142.5pt" height="104.999996pt" viewBox="0 0 142.5 104.999996" version="1.2">
<defs>
<clipPath id="clip1">
  <path d="M 0 0.183594 L 142 0.183594 L 142 104.816406 L 0 104.816406 Z M 0 0.183594 "/>
</clipPath>
<clipPath id="clip2">
  <path d="M 67.632812 1.566406 L 127.425781 1.566406 L 127.425781 58.285156 L 67.632812 58.285156 Z M 67.632812 1.566406 "/>
</clipPath>
<clipPath id="clip3">
  <path d="M 16.480469 2 L 125.625 2 L 125.625 104.816406 L 16.480469 104.816406 Z M 16.480469 2 "/>
</clipPath>
</defs>
<g id="surface1">
<g clip-path="url(#clip1)" clip-rule="nonzero">
<path style=" stroke:none;fill-rule:nonzero;fill:rgb(100%,100%,100%);fill-opacity:1;" d="M 0 0.183594 L 142.5 0.183594 L 142.5 112.683594 L 0 112.683594 Z M 0 0.183594 "/>
<path style=" stroke:none;fill-rule:nonzero;fill:rgb(100%,100%,100%);fill-opacity:1;" d="M 0 0.183594 L 142.5 0.183594 L 142.5 105.183594 L 0 105.183594 Z M 0 0.183594 "/>
<path style=" stroke:none;fill-rule:nonzero;fill:rgb(100%,100%,100%);fill-opacity:1;" d="M 0 0.183594 L 142.5 0.183594 L 142.5 105.183594 L 0 105.183594 Z M 0 0.183594 "/>
</g>
<path style=" stroke:none;fill-rule:nonzero;fill:rgb(100%,100%,100%);fill-opacity:1;" d="M 74.332031 50.71875 C 74.25 51.296875 74.25 51.792969 74.292969 52.148438 C 74.355469 52.828125 74.394531 53.390625 74.808594 53.761719 C 75.058594 53.988281 75.347656 54.070312 75.535156 54.09375 L 75.535156 54.816406 C 75.492188 55.582031 75.929688 56.203125 76.425781 56.347656 C 77.066406 56.515625 78 55.894531 78.082031 54.816406 C 78 54.484375 77.917969 54.050781 77.894531 53.554688 C 77.875 52.933594 77.980469 52.394531 78.082031 52.023438 C 78.433594 51.878906 78.578125 51.527344 78.476562 51.296875 C 78.394531 51.089844 78.125 51.027344 78.082031 51.027344 C 77.8125 50.945312 77.417969 50.800781 77.003906 50.492188 C 76.695312 50.242188 76.46875 49.992188 76.34375 49.785156 C 76.238281 49.953125 75.949219 50.324219 75.429688 50.554688 C 74.957031 50.78125 74.519531 50.761719 74.332031 50.71875 Z M 44.386719 56.90625 L 39.5625 83.632812 C 40.078125 83.777344 40.761719 83.921875 41.550781 83.984375 C 42.417969 84.046875 43.144531 83.960938 43.703125 83.859375 C 44.53125 80.566406 45.339844 77.132812 46.085938 73.53125 C 46.914062 69.492188 47.617188 65.601562 48.199219 61.875 C 48.550781 69.078125 48.882812 76.261719 49.234375 83.464844 C 49.730469 83.589844 50.308594 83.671875 50.953125 83.734375 C 51.925781 83.796875 52.796875 83.714844 53.457031 83.609375 C 53.644531 79.90625 53.726562 76.035156 53.726562 71.996094 C 53.707031 66.574219 53.5 61.421875 53.148438 56.578125 C 51.800781 56.785156 50.269531 56.949219 48.589844 57.011719 C 47.058594 57.050781 45.648438 57.011719 44.386719 56.90625 Z M 50.929688 39.1875 C 50.683594 39.5 50.640625 39.808594 50.621094 39.953125 C 50.371094 39.851562 50.082031 39.976562 49.980469 40.246094 C 49.875 40.492188 50 40.78125 50.269531 40.886719 C 50.289062 41.09375 50.308594 41.589844 49.957031 41.960938 C 49.6875 42.253906 49.335938 42.335938 48.839844 42.417969 C 48.363281 42.5 47.949219 42.480469 47.699219 42.460938 L 47.699219 43.660156 C 47.949219 43.785156 48.425781 43.949219 49.046875 43.949219 C 49.625 43.949219 50.082031 43.785156 50.351562 43.660156 L 50.351562 42.707031 C 50.929688 42.769531 51.222656 42.605469 51.34375 42.5 C 51.757812 42.148438 51.71875 41.507812 51.65625 40.304688 C 51.613281 39.664062 51.550781 39.148438 51.492188 38.796875 C 51.324219 38.816406 51.117188 38.941406 50.929688 39.1875 Z M 81.933594 58.460938 L 79.449219 58.957031 L 68.410156 61.523438 L 67.25 63.160156 L 67.457031 64.214844 L 83.300781 64.316406 L 83.570312 62.828125 Z M 78.664062 66.179688 L 72.96875 66.535156 C 69.425781 66.140625 68.515625 67.402344 68.039062 67.941406 C 67.5625 68.480469 67.273438 70.507812 67.273438 70.507812 L 67.394531 77.277344 L 67.25 83.488281 L 70.894531 83.652344 L 71.433594 70.695312 L 72.636719 71.003906 L 73.027344 83.652344 L 76.714844 83.652344 L 76.714844 71.003906 L 78.953125 70.859375 L 81.066406 69.265625 L 81.832031 66.71875 Z M 58.699219 64.339844 L 58.699219 84.933594 L 59.402344 84.933594 L 59.402344 65.601562 L 87.464844 65.601562 L 87.464844 84.933594 L 94.652344 84.933594 L 94.652344 64.339844 Z M 76.363281 44.03125 L 56.75 44.03125 L 56.75 30.371094 L 76.363281 30.371094 Z M 56.894531 47.757812 C 56.523438 47.757812 56.210938 48.070312 56.210938 48.441406 L 56.210938 52.851562 C 56.210938 53.222656 56.523438 53.535156 56.894531 53.535156 L 69.425781 53.535156 C 69.488281 53.535156 69.527344 53.554688 69.570312 53.597656 L 70.605469 54.898438 L 70.566406 53.71875 C 70.566406 53.679688 70.585938 53.617188 70.605469 53.597656 C 70.648438 53.554688 70.6875 53.535156 70.730469 53.535156 C 71.101562 53.535156 71.414062 53.222656 71.414062 52.851562 L 71.414062 48.441406 C 71.414062 48.070312 71.101562 47.757812 70.730469 47.757812 L 56.894531 47.757812 "/>
<path style=" stroke:none;fill-rule:nonzero;fill:rgb(5.879211%,5.488586%,4.708862%);fill-opacity:1;" d="M 56.832031 43.847656 L 76.09375 43.847656 L 76.09375 30.535156 L 56.832031 30.535156 Z M 76.28125 44.21875 L 56.667969 44.21875 C 56.566406 44.21875 56.480469 44.136719 56.480469 44.03125 L 56.480469 30.371094 C 56.480469 30.265625 56.566406 30.183594 56.667969 30.183594 L 76.28125 30.183594 C 76.382812 30.183594 76.46875 30.265625 76.46875 30.371094 L 76.46875 44.03125 C 76.445312 44.136719 76.363281 44.21875 76.28125 44.21875 Z M 71.683594 77.027344 L 72.761719 71.769531 L 72.761719 71.707031 L 79.304688 71.707031 L 79.304688 71.769531 L 80.527344 77.027344 Z M 82.949219 84.875 L 79.882812 71.730469 L 81.519531 71.730469 C 81.75 71.644531 81.914062 71.460938 81.933594 71.253906 C 81.976562 70.941406 81.6875 70.589844 81.230469 70.550781 C 80.734375 70.464844 80.238281 70.402344 79.761719 70.320312 L 72.015625 70.320312 L 71.144531 70.734375 L 71.414062 71.730469 L 72.222656 71.730469 L 70.875 78.289062 C 70.855469 78.4375 70.9375 78.582031 71.082031 78.601562 L 71.144531 78.601562 C 71.269531 78.601562 71.371094 78.519531 71.414062 78.394531 L 71.578125 77.585938 L 80.691406 77.585938 L 82.433594 85.019531 C 82.453125 85.140625 82.578125 85.226562 82.699219 85.226562 L 82.761719 85.226562 C 82.886719 85.164062 82.96875 85.019531 82.949219 84.875 "/>
<g clip-path="url(#clip2)" clip-rule="nonzero">
<path style=" stroke:none;fill-rule:nonzero;fill:rgb(21.179199%,30.979919%,41.958618%);fill-opacity:1;" d="M 93.367188 10.519531 C 88.105469 7.558594 83.238281 6.316406 79.96875 5.757812 C 80.195312 4.890625 80.402344 4.019531 80.628906 3.148438 C 79.160156 2.570312 77.046875 1.90625 74.457031 1.660156 C 71.703125 1.410156 69.40625 1.699219 67.832031 2.03125 C 68.039062 8.46875 68.222656 14.90625 68.429688 21.34375 C 69.632812 21.367188 70.980469 21.46875 72.429688 21.675781 C 73.671875 21.863281 74.808594 22.089844 75.847656 22.339844 C 78.1875 22.917969 81.292969 23.953125 84.648438 25.878906 C 87.484375 27.515625 89.660156 29.316406 91.234375 30.824219 C 95.375 26.769531 99.519531 22.710938 103.660156 18.675781 C 101.507812 16.335938 98.128906 13.210938 93.367188 10.519531 Z M 127.351562 58.191406 L 101.652344 56.597656 C 101.753906 53.574219 101.546875 48.070312 98.894531 41.941406 C 96.554688 36.519531 93.324219 32.855469 91.210938 30.847656 C 97.300781 24.886719 103.371094 18.945312 109.457031 12.980469 C 113.144531 16.523438 119.378906 23.457031 123.480469 34.054688 C 127.414062 44.199219 127.601562 53.140625 127.351562 58.191406 "/>
</g>
<path style=" stroke:none;fill-rule:nonzero;fill:rgb(21.179199%,30.979919%,41.958618%);fill-opacity:1;" d="M 81.335938 45.335938 L 81.335938 49.1875 L 82.203125 48.234375 L 86.882812 48.234375 L 86.882812 45.335938 Z M 56.855469 52.644531 L 71.042969 52.644531 C 70.6875 51.835938 70.109375 50.863281 69.382812 50.84375 C 68.554688 50.820312 68.308594 52.023438 67.4375 52.105469 C 66.007812 52.25 65.261719 48.980469 63.8125 49.082031 C 62.589844 49.164062 61.867188 50.71875 61.246094 51.585938 C 61.140625 51.734375 61.039062 51.878906 60.894531 51.960938 C 59.816406 52.683594 58.71875 50.449219 57.558594 51.007812 C 57.0625 51.277344 56.894531 52.042969 56.855469 52.644531 Z M 66.214844 38.878906 L 64.433594 38.878906 L 64.433594 41.484375 L 66.214844 41.484375 Z M 68.722656 38.152344 L 66.941406 38.152344 L 66.941406 41.484375 L 68.722656 41.484375 Z M 71.164062 36.640625 L 69.382812 36.640625 L 69.382812 41.484375 L 71.164062 41.484375 Z M 73.710938 33.746094 L 71.929688 33.746094 L 71.929688 41.464844 L 73.710938 41.464844 Z M 63.566406 41.339844 L 61.785156 41.339844 L 61.785156 36.847656 L 63.566406 36.847656 L 63.566406 41.339844 "/>
<path style=" stroke:none;fill-rule:nonzero;fill:rgb(100%,100%,100%);fill-opacity:1;" d="M 61.285156 36.972656 C 62.238281 35.648438 62.757812 35.007812 62.859375 35.070312 C 62.941406 35.109375 62.714844 35.691406 62.15625 36.765625 C 62.261719 36.789062 63.273438 36.972656 63.316406 37.410156 C 63.335938 37.53125 63.253906 37.65625 62.820312 38.113281 C 62.507812 38.441406 62.238281 38.710938 62.03125 38.898438 C 61.886719 38.773438 61.722656 38.648438 61.492188 38.527344 C 61.328125 38.402344 61.140625 38.339844 60.976562 38.277344 C 60.957031 38.070312 60.933594 37.78125 60.894531 37.410156 C 60.789062 36.476562 60.6875 36.042969 60.769531 36.019531 C 60.808594 36 60.933594 36.167969 61.285156 36.972656 "/>
<g clip-path="url(#clip3)" clip-rule="nonzero">
<path style=" stroke:none;fill-rule:nonzero;fill:rgb(5.879211%,5.488586%,4.708862%);fill-opacity:1;" d="M 82.371094 47.53125 L 86.097656 47.53125 L 86.097656 47.34375 L 82.371094 47.34375 Z M 82.371094 46.972656 L 86.097656 46.972656 L 86.097656 46.785156 L 82.371094 46.785156 Z M 86.097656 46.226562 L 82.371094 46.226562 L 82.371094 46.414062 L 86.097656 46.414062 Z M 57.269531 50.261719 C 58.035156 49.992188 58.800781 49.910156 59.566406 49.972656 C 60.664062 50.078125 61.285156 50.511719 61.886719 50.925781 C 62.46875 51.320312 63.003906 51.710938 63.894531 51.710938 L 63.917969 51.710938 C 64.785156 51.710938 65.324219 51.339844 65.90625 50.945312 C 66.527344 50.53125 67.148438 50.097656 68.285156 49.992188 C 69.011719 49.933594 69.734375 50.015625 70.480469 50.242188 C 70.585938 50.261719 70.667969 50.222656 70.710938 50.117188 C 70.730469 50.015625 70.6875 49.933594 70.585938 49.890625 C 69.796875 49.640625 69.011719 49.558594 68.246094 49.621094 C 67.023438 49.726562 66.320312 50.222656 65.699219 50.636719 C 65.136719 51.007812 64.664062 51.359375 63.894531 51.339844 C 63.128906 51.339844 62.652344 51.007812 62.09375 50.613281 C 61.492188 50.199219 60.789062 49.703125 59.589844 49.601562 C 58.78125 49.519531 57.972656 49.621094 57.144531 49.910156 C 57.039062 49.953125 57 50.035156 57.039062 50.140625 C 57.082031 50.242188 57.1875 50.304688 57.269531 50.261719 Z M 70.75 47.757812 L 56.894531 47.757812 C 56.523438 47.757812 56.210938 48.070312 56.210938 48.441406 L 56.210938 52.851562 C 56.210938 53.222656 56.523438 53.535156 56.894531 53.535156 L 69.425781 53.535156 C 69.488281 53.535156 69.527344 53.554688 69.570312 53.597656 L 70.605469 54.898438 L 70.566406 53.71875 C 70.566406 53.679688 70.585938 53.617188 70.605469 53.597656 C 70.648438 53.554688 70.6875 53.535156 70.730469 53.535156 C 71.101562 53.535156 71.414062 53.222656 71.414062 52.851562 L 71.414062 48.441406 C 71.433594 48.046875 71.125 47.757812 70.75 47.757812 Z M 56.894531 47.386719 L 70.75 47.386719 C 71.332031 47.386719 71.808594 47.863281 71.808594 48.441406 L 71.808594 52.851562 C 71.808594 53.367188 71.433594 53.804688 70.9375 53.886719 L 70.980469 55.4375 C 70.980469 55.519531 70.9375 55.582031 70.855469 55.605469 C 70.832031 55.605469 70.8125 55.625 70.792969 55.625 C 70.730469 55.625 70.6875 55.605469 70.648438 55.5625 L 69.320312 53.90625 L 56.875 53.90625 C 56.296875 53.90625 55.820312 53.429688 55.820312 52.851562 L 55.820312 48.441406 C 55.839844 47.863281 56.316406 47.386719 56.894531 47.386719 Z M 76.507812 83.507812 L 76.507812 83.09375 L 73.152344 83.09375 C 73.152344 83.238281 73.175781 83.363281 73.175781 83.507812 Z M 75.429688 82.71875 L 76.488281 82.71875 L 76.46875 70.238281 C 76.46875 70.136719 76.550781 70.050781 76.652344 70.050781 C 76.757812 70.050781 76.839844 70.136719 76.839844 70.238281 L 76.839844 70.859375 C 77.585938 70.941406 78.332031 70.839844 78.972656 70.550781 C 79.738281 70.21875 80.296875 69.660156 80.691406 69.078125 L 76.820312 69.121094 C 76.652344 69.121094 76.074219 69.121094 75.660156 69.554688 C 75.453125 69.761719 75.347656 70.011719 75.308594 70.175781 Z M 72.492188 70.816406 C 72.46875 70.425781 72.449219 70.03125 72.386719 69.636719 L 72.386719 69.617188 C 72.386719 69.535156 72.367188 69.453125 72.347656 69.347656 C 71.972656 69.183594 71.496094 69.058594 71.125 69.246094 C 70.667969 69.492188 70.523438 70.15625 70.480469 70.695312 C 70.296875 72.453125 70.152344 77.050781 70.089844 82.742188 L 70.75 82.742188 L 71.269531 70.136719 C 71.269531 70.03125 71.371094 69.949219 71.457031 69.96875 C 71.558594 69.96875 71.640625 70.050781 71.621094 70.15625 L 71.601562 70.609375 Z M 70.710938 83.507812 L 70.730469 83.09375 L 67.4375 83.09375 C 67.4375 83.238281 67.4375 83.363281 67.417969 83.507812 Z M 76.839844 71.230469 L 76.859375 82.90625 L 76.859375 83.695312 C 76.859375 83.734375 76.839844 83.796875 76.796875 83.816406 C 76.757812 83.859375 76.714844 83.878906 76.675781 83.878906 L 76.488281 83.878906 L 76.488281 84.957031 L 71.683594 84.957031 C 71.746094 84.8125 71.828125 84.605469 72.015625 84.460938 C 72.242188 84.273438 72.46875 84.210938 72.71875 84.148438 C 72.90625 84.085938 73.152344 84.003906 73.421875 83.902344 L 72.96875 83.902344 C 72.863281 83.902344 72.800781 83.816406 72.78125 83.734375 C 72.675781 81.601562 72.554688 79.492188 72.40625 77.460938 C 72.324219 76.304688 72.367188 75.125 72.40625 73.964844 C 72.449219 73.074219 72.46875 72.144531 72.449219 71.230469 L 71.539062 71.003906 L 71.019531 83.734375 C 71.019531 83.839844 70.9375 83.902344 70.832031 83.902344 L 70.503906 83.902344 L 70.503906 84.976562 L 65.699219 84.976562 C 65.761719 84.832031 65.84375 84.625 66.027344 84.480469 C 66.257812 84.292969 66.484375 84.230469 66.734375 84.167969 C 66.917969 84.109375 67.167969 84.023438 67.4375 83.921875 L 67.167969 83.921875 C 67.125 83.921875 67.066406 83.902344 67.042969 83.859375 C 67.003906 83.816406 66.980469 83.777344 67.003906 83.734375 C 67.167969 79.988281 67.1875 76.34375 67.105469 72.910156 L 67.105469 72.660156 C 67.042969 70.445312 66.980469 68.542969 68.347656 67.339844 C 69.28125 66.492188 70.75 66.179688 72.554688 66.449219 C 72.65625 66.472656 72.71875 66.554688 72.699219 66.65625 C 72.675781 66.761719 72.59375 66.824219 72.492188 66.800781 C 71.308594 66.636719 69.652344 66.617188 68.578125 67.609375 C 67.355469 68.707031 67.394531 70.550781 67.457031 72.660156 L 67.457031 72.910156 C 67.539062 76.054688 67.519531 79.386719 67.394531 82.804688 L 69.675781 82.804688 C 69.734375 77.109375 69.882812 72.496094 70.066406 70.714844 C 70.109375 70.300781 70.210938 69.347656 70.917969 68.996094 C 71.289062 68.808594 71.746094 68.808594 72.285156 69.015625 C 72.261719 68.5 72.347656 67.859375 72.78125 67.320312 C 73.214844 66.761719 73.960938 66.429688 74.933594 66.347656 C 75.039062 66.347656 75.121094 66.410156 75.121094 66.511719 C 75.121094 66.617188 75.058594 66.699219 74.957031 66.699219 C 74.085938 66.761719 73.421875 67.050781 73.050781 67.527344 C 72.65625 68.042969 72.613281 68.6875 72.65625 69.164062 C 72.71875 69.222656 72.71875 69.285156 72.699219 69.367188 C 72.699219 69.367188 72.699219 69.390625 72.675781 69.390625 C 72.675781 69.472656 72.699219 69.535156 72.699219 69.597656 L 72.699219 69.636719 C 72.882812 71.085938 72.820312 72.558594 72.78125 73.984375 C 72.738281 75.125 72.699219 76.304688 72.78125 77.441406 C 72.90625 79.179688 73.007812 80.960938 73.089844 82.78125 L 75.039062 82.78125 L 74.894531 70.21875 L 74.894531 70.175781 C 74.976562 69.867188 75.140625 69.597656 75.347656 69.367188 C 75.886719 68.832031 76.570312 68.832031 76.777344 68.832031 L 80.878906 68.789062 C 81.4375 67.816406 81.5625 66.84375 81.582031 66.78125 C 81.601562 66.679688 81.6875 66.617188 81.789062 66.617188 C 81.894531 66.636719 81.957031 66.71875 81.957031 66.824219 C 81.957031 66.90625 81.808594 67.941406 81.1875 69.015625 C 81.1875 69.039062 81.167969 69.058594 81.148438 69.078125 C 80.710938 69.804688 80.070312 70.507812 79.117188 70.921875 C 78.558594 71.171875 77.957031 71.292969 77.335938 71.292969 C 77.171875 71.253906 77.003906 71.230469 76.839844 71.230469 Z M 94.484375 64.523438 L 58.882812 64.523438 L 58.882812 84.75 L 59.234375 84.75 L 59.234375 65.601562 C 59.234375 65.5 59.320312 65.414062 59.421875 65.414062 L 87.484375 65.414062 C 87.589844 65.414062 87.671875 65.5 87.671875 65.601562 L 87.671875 84.75 L 94.503906 84.75 Z M 67.625 64.171875 L 69.363281 64.171875 L 68.515625 61.855469 C 68.285156 62.101562 68.078125 62.371094 67.871094 62.640625 C 67.5 63.117188 67.457031 63.242188 67.4375 63.367188 C 67.375 63.65625 67.5 63.945312 67.625 64.171875 Z M 82.183594 58.605469 C 82.453125 59.289062 82.679688 59.804688 82.785156 60.054688 L 82.886719 60.28125 C 83.589844 61.957031 83.820312 62.539062 83.738281 63.34375 C 83.714844 63.613281 83.652344 63.882812 83.550781 64.152344 L 94.671875 64.152344 C 94.773438 64.152344 94.859375 64.234375 94.859375 64.339844 L 94.859375 84.933594 C 94.859375 85.039062 94.773438 85.121094 94.671875 85.121094 L 87.484375 85.121094 C 87.382812 85.121094 87.296875 85.039062 87.296875 84.933594 L 87.296875 65.789062 L 59.589844 65.789062 L 59.589844 84.933594 C 59.589844 85.039062 59.503906 85.121094 59.402344 85.121094 L 58.699219 85.121094 C 58.59375 85.121094 58.511719 85.039062 58.511719 84.933594 L 58.511719 64.339844 C 58.511719 64.234375 58.59375 64.152344 58.699219 64.152344 L 67.210938 64.152344 C 67.066406 63.84375 67.023438 63.550781 67.085938 63.261719 C 67.125 63.078125 67.210938 62.910156 67.582031 62.394531 C 67.808594 62.082031 68.058594 61.792969 68.308594 61.503906 C 68.328125 61.484375 68.347656 61.460938 68.390625 61.460938 L 66.878906 57.257812 C 69.445312 57.238281 71.992188 57.238281 74.5625 57.21875 C 75.265625 59.453125 75.96875 61.710938 76.675781 63.945312 L 81.210938 63.988281 L 81.210938 64.132812 L 83.199219 64.132812 C 83.300781 63.863281 83.363281 63.574219 83.40625 63.285156 C 83.46875 62.558594 83.238281 62.019531 82.578125 60.40625 L 82.472656 60.179688 C 82.371094 59.910156 82.140625 59.390625 81.871094 58.730469 C 81.832031 58.648438 81.871094 58.523438 81.976562 58.5 C 82.039062 58.480469 82.140625 58.523438 82.183594 58.605469 Z M 79.738281 51.234375 C 79.59375 50.945312 79.242188 50.554688 78.351562 50.347656 C 78.082031 49.332031 77.335938 48.566406 76.445312 48.441406 C 75.679688 48.316406 75.078125 48.710938 74.914062 48.8125 C 73.941406 49.476562 73.878906 50.636719 73.878906 50.761719 C 73.941406 51.007812 74.023438 51.234375 74.085938 51.484375 C 74.085938 51.710938 74.085938 51.941406 74.105469 52.167969 C 74.167969 52.871094 74.210938 53.472656 74.6875 53.90625 C 74.871094 54.070312 75.101562 54.195312 75.347656 54.257812 L 75.347656 54.835938 C 75.347656 54.941406 75.429688 55.023438 75.535156 55.023438 C 75.640625 55.023438 75.722656 54.941406 75.722656 54.835938 L 75.722656 54.113281 C 75.722656 54.03125 75.660156 53.949219 75.578125 53.925781 C 75.328125 53.886719 75.101562 53.78125 74.933594 53.636719 C 74.5625 53.304688 74.542969 52.808594 74.480469 52.125 C 74.4375 51.734375 74.457031 51.320312 74.5 50.90625 C 74.769531 50.925781 75.140625 50.882812 75.515625 50.71875 C 75.886719 50.554688 76.175781 50.304688 76.34375 50.097656 C 76.507812 50.304688 76.695312 50.46875 76.902344 50.636719 C 77.234375 50.90625 77.625 51.089844 78.042969 51.195312 C 78.042969 51.195312 78.25 51.234375 78.289062 51.359375 C 78.351562 51.503906 78.25 51.753906 78 51.855469 C 77.957031 51.878906 77.917969 51.917969 77.894531 51.980469 C 77.75 52.5 77.6875 53.035156 77.710938 53.574219 C 77.730469 54.007812 77.792969 54.445312 77.894531 54.878906 C 77.917969 54.960938 78 55.003906 78.0625 55.003906 L 78.101562 55.003906 C 78.1875 54.984375 78.226562 54.921875 78.226562 54.859375 C 78.722656 54.921875 79.65625 55.128906 80.546875 55.851562 C 80.941406 56.183594 81.25 56.535156 81.480469 56.886719 C 81.996094 56.722656 82.121094 56.554688 82.140625 56.429688 C 82.183594 56.164062 81.6875 56.058594 81.417969 55.542969 C 81.105469 54.960938 81.5 54.609375 81.210938 54.132812 C 80.878906 53.574219 80.277344 53.84375 79.90625 53.304688 C 79.492188 52.683594 80.132812 51.980469 79.738281 51.234375 Z M 74.4375 32.109375 C 73.277344 31.796875 72.160156 31.777344 71.144531 32.066406 C 69.777344 32.441406 69.074219 33.207031 68.429688 33.890625 C 67.851562 34.511719 67.355469 35.046875 66.464844 35.152344 C 65.53125 35.277344 64.890625 34.839844 64.125 34.34375 C 63.316406 33.804688 62.40625 33.207031 61.015625 33.269531 C 60.042969 33.308594 59.089844 33.683594 58.160156 34.34375 C 58.078125 34.40625 58.054688 34.511719 58.117188 34.59375 C 58.179688 34.675781 58.285156 34.695312 58.367188 34.632812 C 59.234375 34.011719 60.125 33.683594 61.039062 33.640625 C 62.300781 33.578125 63.128906 34.136719 63.9375 34.65625 C 64.640625 35.109375 65.304688 35.546875 66.175781 35.546875 C 66.277344 35.546875 66.402344 35.546875 66.527344 35.523438 C 67.539062 35.402344 68.101562 34.800781 68.699219 34.136719 C 69.320312 33.453125 69.984375 32.773438 71.25 32.417969 C 72.199219 32.152344 73.257812 32.171875 74.355469 32.460938 C 74.457031 32.480469 74.542969 32.417969 74.582031 32.335938 C 74.582031 32.234375 74.519531 32.128906 74.4375 32.109375 Z M 65.820312 41.382812 L 64.039062 41.382812 C 63.9375 41.382812 63.855469 41.464844 63.855469 41.570312 C 63.855469 41.671875 63.9375 41.753906 64.039062 41.753906 L 65.820312 41.753906 C 65.925781 41.753906 66.007812 41.671875 66.007812 41.570312 C 66.007812 41.464844 65.925781 41.382812 65.820312 41.382812 Z M 68.308594 41.382812 L 66.527344 41.382812 C 66.421875 41.382812 66.339844 41.464844 66.339844 41.570312 C 66.339844 41.671875 66.421875 41.753906 66.527344 41.753906 L 68.308594 41.753906 C 68.410156 41.753906 68.492188 41.671875 68.492188 41.570312 C 68.492188 41.464844 68.410156 41.382812 68.308594 41.382812 Z M 70.773438 41.382812 L 68.992188 41.382812 C 68.886719 41.382812 68.804688 41.464844 68.804688 41.570312 C 68.804688 41.671875 68.886719 41.753906 68.992188 41.753906 L 70.773438 41.753906 C 70.875 41.753906 70.957031 41.671875 70.957031 41.570312 C 70.957031 41.464844 70.855469 41.382812 70.773438 41.382812 Z M 71.539062 41.734375 L 73.320312 41.734375 C 73.421875 41.734375 73.503906 41.652344 73.503906 41.546875 C 73.503906 41.445312 73.421875 41.363281 73.320312 41.363281 L 71.539062 41.363281 C 71.433594 41.363281 71.351562 41.445312 71.351562 41.546875 C 71.351562 41.652344 71.433594 41.734375 71.539062 41.734375 Z M 65.636719 38.546875 L 64.226562 38.546875 L 64.226562 40.804688 L 65.636719 40.804688 Z M 66.007812 40.96875 C 66.007812 41.070312 65.925781 41.15625 65.820312 41.15625 L 64.039062 41.15625 C 63.9375 41.15625 63.855469 41.070312 63.855469 40.96875 L 63.855469 38.359375 C 63.855469 38.257812 63.9375 38.175781 64.039062 38.175781 L 65.820312 38.175781 C 65.925781 38.175781 66.007812 38.257812 66.007812 38.359375 Z M 68.140625 37.824219 L 66.734375 37.824219 L 66.734375 40.78125 L 68.140625 40.78125 Z M 68.492188 40.96875 C 68.492188 41.070312 68.410156 41.15625 68.308594 41.15625 L 66.527344 41.15625 C 66.421875 41.15625 66.339844 41.070312 66.339844 40.96875 L 66.339844 37.636719 C 66.339844 37.53125 66.421875 37.449219 66.527344 37.449219 L 68.308594 37.449219 C 68.410156 37.449219 68.492188 37.53125 68.492188 37.636719 Z M 70.585938 36.3125 L 69.175781 36.3125 L 69.175781 40.78125 L 70.585938 40.78125 Z M 70.9375 40.96875 C 70.9375 41.070312 70.855469 41.15625 70.75 41.15625 L 68.96875 41.15625 C 68.867188 41.15625 68.785156 41.070312 68.785156 40.96875 L 68.785156 36.125 C 68.785156 36.019531 68.867188 35.9375 68.96875 35.9375 L 70.75 35.9375 C 70.855469 35.9375 70.9375 36.019531 70.9375 36.125 Z M 71.722656 40.78125 L 73.132812 40.78125 L 73.132812 33.414062 L 71.722656 33.414062 Z M 71.351562 40.96875 L 71.351562 33.246094 C 71.351562 33.144531 71.433594 33.0625 71.539062 33.0625 L 73.320312 33.0625 C 73.421875 33.0625 73.503906 33.144531 73.503906 33.246094 L 73.503906 40.96875 C 73.503906 41.070312 73.421875 41.15625 73.320312 41.15625 L 71.539062 41.15625 C 71.433594 41.15625 71.351562 41.070312 71.351562 40.96875 Z M 44.40625 56.722656 C 44.304688 56.699219 44.222656 56.761719 44.199219 56.867188 L 39.375 83.589844 C 39.355469 83.671875 39.417969 83.777344 39.5 83.796875 L 40.246094 83.984375 C 40.246094 84.167969 40.246094 84.355469 40.222656 84.542969 C 40.472656 84.644531 40.804688 84.769531 41.175781 84.832031 C 41.734375 84.933594 42.234375 84.933594 42.585938 84.914062 C 42.648438 84.667969 42.730469 84.398438 42.792969 84.148438 C 43.101562 84.128906 43.414062 84.085938 43.722656 84.023438 C 43.785156 84.003906 43.847656 83.960938 43.867188 83.902344 C 44.738281 80.484375 45.527344 77.007812 46.25 73.570312 C 46.933594 70.28125 47.554688 66.945312 48.09375 63.613281 L 49.046875 83.464844 C 49.046875 83.546875 49.109375 83.609375 49.191406 83.632812 C 49.441406 83.695312 49.710938 83.734375 49.980469 83.777344 L 49.980469 84.914062 C 51.78125 84.914062 53.601562 84.894531 55.40625 84.894531 C 55.363281 84.707031 55.300781 84.4375 55.074219 84.273438 C 54.824219 84.066406 54.515625 84.109375 54.222656 84.109375 C 53.914062 84.109375 53.5 84.046875 52.980469 83.816406 C 53.148438 83.796875 53.332031 83.777344 53.5 83.734375 C 53.582031 83.714844 53.644531 83.652344 53.644531 83.570312 C 53.832031 79.71875 53.914062 75.808594 53.914062 71.9375 C 53.894531 66.800781 53.707031 61.605469 53.332031 56.492188 C 53.332031 56.390625 53.25 56.328125 53.148438 56.328125 C 53.042969 56.328125 52.980469 56.410156 52.980469 56.515625 C 53.355469 61.628906 53.539062 66.800781 53.5625 71.914062 C 53.582031 75.722656 53.5 79.574219 53.3125 83.382812 C 52.546875 83.507812 51.757812 83.546875 50.992188 83.488281 C 50.476562 83.445312 49.9375 83.382812 49.417969 83.257812 L 48.382812 61.8125 C 48.382812 61.730469 48.300781 61.648438 48.21875 61.648438 C 48.113281 61.648438 48.050781 61.710938 48.03125 61.792969 C 47.429688 65.683594 46.707031 69.597656 45.917969 73.445312 C 45.214844 76.84375 44.429688 80.277344 43.578125 83.652344 C 42.917969 83.753906 42.253906 83.796875 41.570312 83.753906 C 40.96875 83.714844 40.367188 83.609375 39.769531 83.464844 L 44.550781 56.886719 C 44.574219 56.84375 44.511719 56.742188 44.40625 56.722656 Z M 51.863281 36.664062 C 51.613281 36.558594 51.429688 36.808594 50.828125 36.890625 C 50.414062 36.953125 50.269531 36.871094 49.792969 36.847656 C 49.480469 36.828125 48.527344 36.789062 47.742188 37.304688 C 47.515625 37.449219 47.121094 37.761719 46.832031 38.359375 C 46.6875 38.441406 46.480469 38.566406 46.355469 38.816406 C 46.125 39.3125 46.519531 39.851562 46.976562 40.925781 C 47.121094 41.257812 47.308594 41.753906 47.492188 42.398438 L 47.492188 43.640625 C 47.492188 43.742188 47.578125 43.824219 47.679688 43.824219 C 47.785156 43.824219 47.867188 43.742188 47.867188 43.640625 L 47.867188 42.625 C 48.199219 42.644531 48.527344 42.625 48.859375 42.5625 C 49.378906 42.480469 49.773438 42.398438 50.082031 42.046875 C 50.433594 41.652344 50.453125 41.113281 50.433594 40.824219 C 50.433594 40.761719 50.394531 40.699219 50.332031 40.679688 C 50.164062 40.617188 50.082031 40.429688 50.144531 40.265625 C 50.164062 40.183594 50.226562 40.121094 50.308594 40.097656 C 50.394531 40.058594 50.476562 40.058594 50.558594 40.097656 C 50.621094 40.121094 50.660156 40.121094 50.722656 40.078125 C 50.765625 40.058594 50.808594 39.996094 50.808594 39.933594 C 50.828125 39.769531 50.890625 39.519531 51.078125 39.269531 C 51.136719 39.1875 51.222656 39.105469 51.324219 39.042969 C 51.386719 39.457031 51.429688 39.871094 51.449219 40.285156 C 51.53125 41.464844 51.550781 42.066406 51.199219 42.335938 C 51.015625 42.5 50.722656 42.5625 50.351562 42.5 C 50.308594 42.5 50.246094 42.5 50.207031 42.542969 C 50.164062 42.582031 50.144531 42.625 50.144531 42.667969 L 50.144531 43.617188 C 50.144531 43.722656 50.226562 43.804688 50.332031 43.804688 C 50.433594 43.804688 50.515625 43.722656 50.515625 43.617188 L 50.515625 42.851562 C 50.910156 42.875 51.222656 42.769531 51.449219 42.582031 C 51.925781 42.167969 51.882812 41.445312 51.820312 40.222656 C 51.800781 39.746094 51.738281 39.269531 51.65625 38.816406 C 51.863281 38.589844 52.113281 38.238281 52.175781 37.761719 C 52.214844 37.46875 52.195312 36.808594 51.863281 36.664062 Z M 121.117188 34.863281 C 118.09375 27.039062 113.3125 19.835938 107.261719 13.976562 L 98.957031 22.109375 L 89.265625 31.589844 L 89.433594 31.757812 C 89.535156 31.859375 89.640625 31.964844 89.742188 32.046875 C 89.824219 32.128906 89.886719 32.210938 89.96875 32.273438 C 90.09375 32.398438 90.21875 32.542969 90.34375 32.667969 C 90.40625 32.730469 90.445312 32.792969 90.507812 32.855469 C 90.652344 33 90.796875 33.164062 90.921875 33.332031 L 91.046875 33.453125 C 91.210938 33.640625 91.359375 33.804688 91.523438 33.992188 C 91.542969 34.011719 91.566406 34.035156 91.585938 34.074219 C 91.9375 34.488281 92.289062 34.925781 92.621094 35.359375 C 92.640625 35.378906 92.640625 35.402344 92.664062 35.421875 C 92.808594 35.609375 92.953125 35.8125 93.097656 36 C 93.140625 36.042969 93.179688 36.105469 93.199219 36.144531 C 93.324219 36.3125 93.449219 36.496094 93.574219 36.664062 C 93.617188 36.726562 93.636719 36.765625 93.675781 36.828125 C 93.800781 37.015625 93.925781 37.179688 94.03125 37.367188 C 94.050781 37.410156 94.089844 37.449219 94.113281 37.492188 C 94.238281 37.699219 94.382812 37.90625 94.503906 38.113281 C 94.503906 38.132812 94.527344 38.152344 94.527344 38.152344 C 98.003906 43.785156 99.828125 50.367188 99.621094 57.175781 L 124.96875 58.75 C 125.363281 50.675781 124.039062 42.417969 121.117188 34.863281 Z M 101.195312 19.441406 C 98.253906 16.273438 94.859375 13.582031 91.089844 11.449219 C 86.988281 9.152344 82.554688 7.558594 77.917969 6.730469 L 76.964844 10.476562 L 73.859375 22.980469 C 74.1875 23.0625 74.519531 23.167969 74.851562 23.25 C 74.976562 23.289062 75.078125 23.3125 75.203125 23.351562 C 75.390625 23.414062 75.597656 23.476562 75.785156 23.539062 C 75.949219 23.582031 76.113281 23.644531 76.28125 23.703125 C 76.363281 23.726562 76.425781 23.746094 76.507812 23.789062 C 76.902344 23.933594 77.296875 24.058594 77.6875 24.222656 C 77.792969 24.265625 77.875 24.304688 77.980469 24.324219 C 78.1875 24.410156 78.371094 24.492188 78.578125 24.574219 C 78.664062 24.59375 78.722656 24.636719 78.808594 24.679688 C 79.160156 24.824219 79.511719 24.988281 79.863281 25.132812 C 79.96875 25.195312 80.089844 25.238281 80.195312 25.300781 C 80.359375 25.382812 80.546875 25.464844 80.710938 25.546875 C 80.859375 25.628906 81.003906 25.691406 81.148438 25.773438 C 81.375 25.898438 81.601562 26.003906 81.832031 26.125 C 81.996094 26.230469 82.183594 26.3125 82.347656 26.417969 C 82.410156 26.457031 82.492188 26.5 82.554688 26.519531 C 82.617188 26.5625 82.699219 26.601562 82.761719 26.644531 C 82.886719 26.726562 83.011719 26.789062 83.136719 26.871094 C 83.261719 26.953125 83.382812 27.015625 83.507812 27.101562 C 83.757812 27.246094 83.984375 27.410156 84.234375 27.554688 C 84.316406 27.597656 84.378906 27.660156 84.460938 27.699219 L 85.019531 28.074219 C 85.101562 28.132812 85.1875 28.195312 85.269531 28.238281 C 85.457031 28.363281 85.640625 28.507812 85.808594 28.632812 C 85.871094 28.671875 85.953125 28.734375 86.015625 28.777344 L 86.761719 29.335938 L 86.78125 29.355469 L 87.464844 29.914062 C 87.546875 29.976562 87.609375 30.039062 87.691406 30.101562 C 87.859375 30.246094 88.003906 30.371094 88.167969 30.515625 C 88.25 30.597656 88.335938 30.660156 88.417969 30.742188 C 88.582031 30.886719 88.726562 31.03125 88.894531 31.175781 C 88.957031 31.238281 89.019531 31.28125 89.058594 31.34375 Z M 77.605469 6.484375 L 78.226562 4.019531 C 76.300781 3.273438 74.292969 2.796875 72.242188 2.613281 C 70.089844 2.40625 67.933594 2.527344 65.800781 2.964844 L 66.382812 21.945312 C 68.742188 22.007812 71.125 22.339844 73.445312 22.898438 L 73.484375 22.898438 Z M 125.34375 58.976562 C 125.34375 59.019531 125.324219 59.058594 125.28125 59.101562 C 125.238281 59.121094 125.199219 59.144531 125.15625 59.144531 L 125.136719 59.144531 L 114.324219 58.480469 C 114.097656 63.34375 113.125 68.148438 111.445312 72.765625 C 106.996094 85.039062 98.027344 94.871094 86.199219 100.417969 C 79.59375 103.503906 72.554688 105.054688 65.46875 105.054688 C 59.859375 105.054688 54.222656 104.082031 48.796875 102.117188 C 36.519531 97.667969 26.679688 88.703125 21.128906 76.882812 C 15.578125 65.0625 14.976562 51.773438 19.433594 39.5 C 22.910156 29.851562 29.1875 21.71875 37.574219 15.921875 C 45.773438 10.25 55.363281 7.226562 65.304688 7.207031 C 65.40625 7.207031 65.492188 7.289062 65.492188 7.394531 C 65.492188 7.496094 65.40625 7.578125 65.304688 7.578125 C 44.988281 7.621094 26.699219 20.496094 19.78125 39.601562 C 10.671875 64.773438 23.738281 92.65625 48.921875 101.765625 C 61.121094 106.175781 74.3125 105.574219 86.054688 100.066406 C 97.796875 94.5625 106.703125 84.8125 111.117188 72.621094 C 112.773438 68.023438 113.746094 63.261719 113.972656 58.417969 L 99.621094 57.527344 C 99.539062 59.597656 99.25 61.710938 98.773438 63.800781 C 98.75 63.90625 98.648438 63.964844 98.566406 63.925781 C 98.460938 63.90625 98.398438 63.800781 98.441406 63.71875 C 98.9375 61.585938 99.207031 59.476562 99.289062 57.363281 L 99.289062 57.34375 C 99.457031 52.355469 98.523438 47.324219 96.554688 42.75 C 95.894531 41.195312 95.105469 39.707031 94.238281 38.277344 C 94.238281 38.257812 94.214844 38.257812 94.214844 38.238281 C 94.089844 38.03125 93.945312 37.800781 93.800781 37.59375 C 93.78125 37.574219 93.761719 37.53125 93.738281 37.511719 C 93.617188 37.304688 93.46875 37.117188 93.324219 36.910156 C 93.304688 36.890625 93.285156 36.851562 93.261719 36.828125 C 92.953125 36.375 92.621094 35.9375 92.289062 35.484375 C 92.289062 35.460938 92.269531 35.460938 92.269531 35.441406 C 92.101562 35.234375 91.957031 35.046875 91.792969 34.839844 C 91.75 34.800781 91.710938 34.757812 91.6875 34.71875 C 91.542969 34.550781 91.421875 34.386719 91.273438 34.222656 C 91.234375 34.160156 91.191406 34.117188 91.128906 34.054688 C 91.003906 33.910156 90.859375 33.746094 90.738281 33.601562 C 90.695312 33.539062 90.632812 33.496094 90.589844 33.433594 C 90.46875 33.289062 90.324219 33.144531 90.199219 33 L 89.640625 32.441406 C 89.554688 32.359375 89.492188 32.273438 89.410156 32.210938 L 89.140625 31.945312 C 89.039062 31.839844 88.933594 31.738281 88.808594 31.632812 C 88.601562 31.445312 88.394531 31.238281 88.1875 31.054688 C 88.128906 30.992188 88.042969 30.929688 87.980469 30.867188 L 87.484375 30.433594 C 87.402344 30.371094 87.339844 30.308594 87.257812 30.246094 C 87.070312 30.082031 86.882812 29.9375 86.699219 29.789062 C 86.65625 29.75 86.59375 29.707031 86.554688 29.667969 C 86.304688 29.480469 86.078125 29.292969 85.828125 29.109375 C 85.765625 29.066406 85.726562 29.023438 85.664062 28.984375 C 85.476562 28.839844 85.269531 28.695312 85.082031 28.550781 C 85 28.488281 84.917969 28.425781 84.835938 28.382812 C 84.648438 28.257812 84.480469 28.136719 84.296875 28.011719 C 84.210938 27.949219 84.128906 27.90625 84.046875 27.84375 C 83.820312 27.679688 83.570312 27.535156 83.320312 27.390625 C 83.199219 27.308594 83.074219 27.246094 82.96875 27.183594 C 82.847656 27.101562 82.699219 27.015625 82.578125 26.933594 C 82.453125 26.851562 82.308594 26.789062 82.183594 26.707031 C 81.996094 26.601562 81.808594 26.5 81.644531 26.394531 C 81.4375 26.292969 81.230469 26.167969 81.003906 26.066406 C 80.859375 25.980469 80.691406 25.898438 80.546875 25.835938 L 80.050781 25.589844 C 79.925781 25.527344 79.800781 25.484375 79.699219 25.421875 C 79.386719 25.277344 79.054688 25.132812 78.746094 25.007812 C 78.640625 24.96875 78.539062 24.925781 78.457031 24.886719 C 78.269531 24.800781 78.0625 24.71875 77.875 24.65625 L 77.566406 24.53125 C 77.398438 24.472656 77.210938 24.410156 77.046875 24.347656 C 76.882812 24.285156 76.714844 24.242188 76.570312 24.179688 C 76.445312 24.140625 76.300781 24.097656 76.175781 24.035156 C 76.011719 23.972656 75.847656 23.933594 75.699219 23.871094 C 75.492188 23.808594 75.265625 23.746094 75.058594 23.664062 C 74.957031 23.644531 74.871094 23.601562 74.769531 23.582031 C 74.417969 23.476562 74.066406 23.394531 73.691406 23.292969 C 72.574219 23.023438 71.433594 22.792969 70.296875 22.628906 C 68.992188 22.441406 67.644531 22.339844 66.320312 22.296875 L 66.277344 22.296875 C 61.121094 22.171875 55.984375 23.25 51.179688 25.507812 C 42.894531 29.335938 36.703125 36.125 33.617188 44.613281 C 29.457031 56.121094 31.855469 69.039062 39.871094 78.292969 C 39.933594 78.375 39.933594 78.476562 39.851562 78.539062 C 39.808594 78.558594 39.769531 78.582031 39.726562 78.582031 C 39.6875 78.582031 39.625 78.558594 39.582031 78.519531 C 31.464844 69.164062 29.039062 56.121094 33.265625 44.488281 C 36.371094 35.898438 42.648438 29.046875 50.910156 25.175781 C 55.714844 22.917969 60.851562 21.84375 66.007812 21.925781 L 65.40625 2.796875 C 65.40625 2.714844 65.46875 2.632812 65.554688 2.613281 C 67.75 2.15625 70.003906 2.03125 72.242188 2.238281 C 74.375 2.445312 76.46875 2.941406 78.476562 3.730469 C 78.558594 3.769531 78.601562 3.855469 78.578125 3.9375 L 78 6.378906 C 82.679688 7.207031 87.132812 8.800781 91.253906 11.140625 C 95.042969 13.273438 98.480469 15.984375 101.445312 19.191406 L 107.140625 13.625 C 107.203125 13.5625 107.324219 13.5625 107.386719 13.625 C 113.519531 19.523438 118.386719 26.832031 121.449219 34.757812 C 124.410156 42.398438 125.757812 50.761719 125.34375 58.976562 Z M 58.988281 39.125 C 58.882812 39.125 58.800781 39.210938 58.800781 39.3125 L 58.800781 40.265625 C 58.800781 40.367188 58.882812 40.453125 58.988281 40.453125 C 59.089844 40.453125 59.175781 40.367188 59.175781 40.265625 L 59.175781 39.476562 L 59.671875 39.476562 C 59.773438 39.476562 59.859375 39.394531 59.859375 39.292969 C 59.859375 39.1875 59.773438 39.105469 59.671875 39.105469 Z M 62.425781 36.621094 C 62.589844 36.664062 62.796875 36.726562 62.964844 36.808594 L 62.964844 36.3125 L 62.570312 36.3125 C 62.527344 36.414062 62.488281 36.519531 62.425781 36.621094 Z M 63.335938 40.96875 C 63.335938 41.070312 63.253906 41.15625 63.152344 41.15625 L 61.660156 41.15625 C 61.554688 41.15625 61.472656 41.070312 61.472656 40.96875 C 61.472656 40.867188 61.554688 40.78125 61.660156 40.78125 L 62.984375 40.78125 L 62.984375 38.195312 C 62.734375 38.464844 62.46875 38.734375 62.199219 39.003906 C 62.15625 39.042969 62.113281 39.042969 62.074219 39.042969 C 62.03125 39.042969 61.96875 39.023438 61.949219 38.980469 C 61.886719 38.917969 61.886719 38.796875 61.949219 38.734375 C 62.21875 38.484375 62.46875 38.214844 62.714844 37.945312 C 62.941406 37.699219 63.171875 37.449219 63.152344 37.386719 C 63.128906 37.203125 62.613281 36.996094 62.136719 36.910156 C 62.074219 36.910156 62.03125 36.871094 62.011719 36.808594 C 61.992188 36.765625 61.992188 36.703125 62.011719 36.640625 C 62.238281 36.1875 62.40625 35.855469 62.507812 35.628906 C 62.28125 35.898438 61.949219 36.332031 61.453125 37.035156 C 61.410156 37.097656 61.347656 37.117188 61.285156 37.117188 C 61.222656 37.117188 61.164062 37.078125 61.140625 37.015625 C 61.101562 36.910156 61.058594 36.828125 61.015625 36.746094 C 61.039062 36.910156 61.058594 37.117188 61.101562 37.367188 C 61.140625 37.65625 61.164062 37.96875 61.183594 38.257812 C 61.183594 38.359375 61.121094 38.441406 61.015625 38.441406 C 60.914062 38.441406 60.832031 38.382812 60.832031 38.277344 C 60.808594 37.988281 60.789062 37.699219 60.746094 37.410156 C 60.707031 37.078125 60.6875 36.808594 60.644531 36.582031 C 60.5625 36.019531 60.539062 35.875 60.746094 35.8125 C 60.894531 35.773438 60.996094 35.835938 61.222656 36.289062 L 61.222656 36.125 C 61.222656 36.019531 61.308594 35.9375 61.410156 35.9375 L 61.824219 35.9375 C 62.734375 34.738281 62.839844 34.78125 62.984375 34.882812 C 63.128906 34.964844 63.191406 35.070312 62.777344 35.9375 L 63.171875 35.9375 C 63.273438 35.9375 63.359375 36.019531 63.359375 36.125 L 63.359375 37.035156 C 63.460938 37.117188 63.523438 37.242188 63.523438 37.367188 C 63.542969 37.492188 63.503906 37.617188 63.359375 37.800781 Z M 63.335938 41.546875 C 63.335938 41.652344 63.253906 41.734375 63.152344 41.734375 L 61.371094 41.734375 C 61.265625 41.734375 61.183594 41.652344 61.183594 41.546875 C 61.183594 41.445312 61.265625 41.363281 61.371094 41.363281 L 63.152344 41.363281 C 63.253906 41.382812 63.335938 41.464844 63.335938 41.546875 "/>
</g>
<path style=" stroke:none;fill-rule:nonzero;fill:rgb(21.179199%,30.979919%,41.958618%);fill-opacity:1;" d="M 47.679688 43.640625 C 46.808594 43.679688 44.964844 43.929688 43.660156 45.316406 C 43.289062 45.730469 42.832031 46.328125 42.191406 48.503906 C 41.796875 49.785156 41.34375 51.609375 41.074219 53.90625 C 41.40625 54.175781 41.882812 54.507812 42.503906 54.777344 C 43.246094 55.085938 43.910156 55.210938 44.386719 55.25 L 44.386719 56.886719 C 45.648438 56.992188 47.058594 57.03125 48.589844 56.96875 C 50.269531 56.90625 51.800781 56.742188 53.148438 56.535156 C 52.980469 53.636719 52.816406 50.761719 52.648438 47.863281 C 54.039062 47.511719 55.175781 47.15625 56.003906 46.890625 C 58.136719 46.183594 58.59375 45.832031 58.882812 45.605469 C 59.339844 45.234375 59.710938 44.777344 60.601562 43.058594 C 61.101562 42.105469 61.742188 40.804688 62.425781 39.210938 C 62.238281 39.003906 61.90625 38.691406 61.429688 38.421875 C 61.015625 38.214844 60.664062 38.113281 60.394531 38.070312 C 59.277344 39.789062 58.160156 41.507812 57.019531 43.203125 C 55.941406 43.433594 54.636719 43.617188 53.167969 43.679688 C 52.113281 43.722656 51.160156 43.679688 50.308594 43.597656 C 50.0625 43.699219 49.605469 43.867188 49.003906 43.886719 C 48.40625 43.929688 47.949219 43.761719 47.679688 43.640625 Z M 73.132812 65.601562 C 73.132812 65.707031 73.089844 65.914062 72.96875 66.140625 C 72.84375 66.367188 72.675781 66.492188 72.574219 66.554688 C 73.941406 66.472656 75.410156 66.410156 76.984375 66.449219 C 78.722656 66.472656 80.320312 66.59375 81.808594 66.761719 L 81.4375 65.621094 C 78.664062 65.601562 75.90625 65.601562 73.132812 65.601562 Z M 76.652344 56.246094 C 77.359375 56.328125 78.101562 55.707031 78.082031 54.835938 C 78.496094 54.878906 79.574219 55.042969 80.566406 55.851562 C 81.726562 56.804688 82.058594 58.027344 82.164062 58.417969 L 79.429688 58.976562 L 80.527344 62.515625 L 76.238281 62.722656 L 74.542969 57.28125 L 71.144531 57.300781 C 71.578125 56.867188 72.242188 56.265625 73.152344 55.769531 C 74.085938 55.25 74.933594 55.003906 75.535156 54.878906 C 75.515625 55.5625 76.03125 56.183594 76.652344 56.246094 "/>
</g>
</svg>
