<?xml version="1.0" encoding="UTF-8"?>
<svg xmlns="http://www.w3.org/2000/svg" xmlns:xlink="http://www.w3.org/1999/xlink" width="142.5pt" height="104.999996pt" viewBox="0 0 142.5 104.999996" version="1.2">
<defs>
<clipPath id="clip1">
  <path d="M 0 0.183594 L 142 0.183594 L 142 104.816406 L 0 104.816406 Z M 0 0.183594 "/>
</clipPath>
<clipPath id="clip2">
  <path d="M 27.707031 37.121094 L 128.035156 37.121094 L 128.035156 104.496094 L 27.707031 104.496094 Z M 27.707031 37.121094 "/>
</clipPath>
<clipPath id="clip3">
  <path d="M 16 58 L 126 58 L 126 104.816406 L 16 104.816406 Z M 16 58 "/>
</clipPath>
<clipPath id="clip4">
  <path d="M 28.523438 37.53125 L 97.953125 37.53125 L 97.953125 104.5 L 28.523438 104.5 Z M 28.523438 37.53125 "/>
</clipPath>
</defs>
<g id="surface1">
<g clip-path="url(#clip1)" clip-rule="nonzero">
<path style=" stroke:none;fill-rule:nonzero;fill:rgb(100%,100%,100%);fill-opacity:1;" d="M 0 0.183594 L 142.5 0.183594 L 142.5 112.683594 L 0 112.683594 Z M 0 0.183594 "/>
<path style=" stroke:none;fill-rule:nonzero;fill:rgb(100%,100%,100%);fill-opacity:1;" d="M 0 0.183594 L 142.5 0.183594 L 142.5 105.183594 L 0 105.183594 Z M 0 0.183594 "/>
<path style=" stroke:none;fill-rule:nonzero;fill:rgb(100%,100%,100%);fill-opacity:1;" d="M 0 0.183594 L 142.5 0.183594 L 142.5 105.183594 L 0 105.183594 Z M 0 0.183594 "/>
</g>
<path style=" stroke:none;fill-rule:nonzero;fill:rgb(49.409485%,85.099792%,34.118652%);fill-opacity:1;" d="M 36.816406 100.445312 C 37.898438 99.832031 42.921875 96.777344 44.3125 90.800781 C 45.78125 84.429688 42.535156 77.324219 36.101562 73.414062 C 35.695312 73.679688 28.648438 78.636719 29.035156 87.398438 C 29.40625 95.816406 36.285156 100.117188 36.816406 100.445312 Z M 127.601562 78.574219 C 117.535156 74.273438 106.429688 76.445312 100.179688 83.589844 C 94.316406 90.328125 95.015625 98.867188 95.199219 100.648438 C 96.015625 100.996094 106.917969 105.503906 117.128906 98.785156 C 127.789062 91.804688 127.625 79.269531 127.601562 78.574219 Z M 89.152344 60.019531 C 88.132812 50.578125 94.074219 40.890625 104.058594 36.40625 C 104.589844 36.878906 113.882812 45.253906 111.800781 57.828125 C 109.800781 69.910156 99.117188 74.90625 98.300781 75.257812 C 96.832031 74.191406 90.09375 68.90625 89.152344 60.019531 "/>
<g clip-path="url(#clip2)" clip-rule="nonzero">
<path style=" stroke:none;fill-rule:nonzero;fill:rgb(5.879211%,5.488586%,4.708862%);fill-opacity:1;" d="M 95.769531 102.410156 C 97.933594 100.628906 100.140625 98.867188 102.367188 97.148438 L 112.023438 98.683594 L 112.066406 98.398438 L 102.671875 96.902344 C 104.671875 95.367188 106.695312 93.871094 108.714844 92.417969 L 122.519531 95.695312 C 121.171875 97.414062 119.457031 99.050781 117.3125 100.464844 C 107.757812 106.730469 97.464844 103.085938 95.769531 102.410156 Z M 122.742188 95.425781 L 109.0625 92.171875 C 109.351562 91.964844 109.632812 91.761719 109.921875 91.558594 C 111.984375 90.101562 114.066406 88.667969 116.191406 87.277344 L 125.929688 89.753906 C 125.195312 91.597656 124.171875 93.5625 122.742188 95.425781 Z M 127.726562 80.457031 C 127.726562 81.152344 127.707031 85.003906 126.011719 89.46875 L 116.515625 87.050781 C 119.316406 85.207031 122.132812 83.425781 124.972656 81.707031 L 124.808594 81.441406 C 121.925781 83.179688 119.066406 84.984375 116.253906 86.847656 L 114.984375 78.429688 C 119.152344 78.0625 123.5625 78.695312 127.726562 80.457031 Z M 114.699219 78.472656 L 115.988281 87.050781 C 113.882812 88.445312 111.800781 89.878906 109.734375 91.332031 C 109.429688 91.558594 109.125 91.761719 108.816406 91.988281 L 107.921875 82.730469 L 107.613281 82.75 L 108.535156 92.191406 C 106.46875 93.667969 104.425781 95.183594 102.40625 96.738281 L 100.589844 85.453125 C 104.121094 81.441406 109.1875 79.042969 114.699219 78.472656 Z M 100.367188 85.71875 L 102.164062 96.921875 C 99.933594 98.621094 97.75 100.382812 95.609375 102.164062 C 95.320312 98.992188 95.320312 91.699219 100.367188 85.71875 Z M 95.339844 102.554688 L 95.421875 102.59375 C 95.769531 102.738281 101.550781 105.175781 108.613281 104.109375 C 111.472656 103.679688 114.515625 102.675781 117.496094 100.710938 C 128.300781 93.625 128.035156 80.886719 128.035156 80.355469 L 128.035156 80.253906 L 127.949219 80.210938 C 123.007812 78.101562 117.742188 77.46875 112.71875 78.410156 C 107.734375 79.351562 103.46875 81.707031 100.367188 85.269531 C 94.871094 91.558594 95.035156 99.378906 95.339844 102.453125 Z M 99.933594 76.035156 C 100.101562 73.226562 100.304688 70.421875 100.546875 67.597656 L 108.226562 61.515625 L 108.042969 61.269531 L 100.589844 67.1875 C 100.816406 64.6875 101.097656 62.167969 101.40625 59.691406 L 113.167969 51.746094 C 113.515625 53.917969 113.554688 56.273438 113.128906 58.8125 C 111.25 70.136719 101.566406 75.257812 99.933594 76.035156 Z M 113.105469 51.417969 L 101.449219 59.304688 C 101.488281 58.953125 101.53125 58.605469 101.566406 58.257812 C 101.898438 55.761719 102.265625 53.242188 102.671875 50.742188 L 111.085938 45.234375 C 111.964844 47.035156 112.695312 49.105469 113.105469 51.417969 Z M 105.511719 37.59375 C 106.023438 38.066406 108.839844 40.6875 110.960938 44.96875 L 102.753906 50.332031 C 103.304688 47.035156 103.898438 43.738281 104.570312 40.484375 L 104.285156 40.421875 C 103.609375 43.71875 102.980469 47.054688 102.449219 50.394531 L 95.421875 45.621094 C 97.933594 42.285156 101.40625 39.480469 105.511719 37.59375 Z M 95.21875 45.867188 L 102.386719 50.722656 C 101.976562 53.21875 101.609375 55.71875 101.285156 58.21875 C 101.242188 58.585938 101.183594 58.953125 101.140625 59.324219 L 93.746094 53.710938 L 93.566406 53.957031 L 101.097656 59.691406 C 100.792969 62.210938 100.507812 64.75 100.28125 67.289062 L 90.785156 60.980469 C 90.234375 55.65625 91.910156 50.3125 95.21875 45.867188 Z M 90.828125 61.351562 L 100.242188 67.617188 C 99.996094 70.421875 99.792969 73.207031 99.628906 75.992188 C 97.117188 74.066406 91.789062 69.113281 90.828125 61.351562 Z M 99.753906 76.464844 L 99.832031 76.421875 C 100.160156 76.28125 105.878906 73.660156 109.878906 67.738281 C 111.496094 65.34375 112.839844 62.414062 113.410156 58.871094 C 115.539062 46.09375 106.042969 37.65625 105.632812 37.308594 L 105.550781 37.246094 L 105.46875 37.289062 C 100.570312 39.5 96.546875 42.960938 93.832031 47.300781 C 91.136719 51.601562 89.96875 56.375 90.480469 61.0625 C 91.378906 69.378906 97.199219 74.558594 99.667969 76.402344 Z M 28.035156 87.972656 C 27.953125 86.210938 28.179688 84.59375 28.609375 83.140625 L 35.980469 89.550781 C 35.980469 91.269531 35.960938 93.011719 35.917969 94.730469 L 31.324219 90.082031 L 31.179688 90.226562 L 35.917969 95.019531 C 35.855469 96.964844 35.777344 98.910156 35.632812 100.832031 C 34.550781 100.15625 28.382812 95.859375 28.035156 87.972656 Z M 30.546875 78.859375 L 35.835938 83.324219 C 35.898438 85.066406 35.960938 86.828125 35.960938 88.546875 L 35.960938 89.261719 L 28.648438 82.914062 C 29.140625 81.359375 29.8125 80.007812 30.546875 78.859375 Z M 41.25 80.4375 L 36.042969 83.097656 C 35.941406 80.765625 35.796875 78.429688 35.613281 76.136719 L 35.410156 76.15625 C 35.59375 78.429688 35.734375 80.746094 35.835938 83.039062 L 30.671875 78.675781 C 32.46875 75.953125 34.613281 74.375 35 74.109375 C 37.652344 75.726562 39.777344 77.9375 41.25 80.4375 Z M 43.128906 91.289062 L 36.121094 94.8125 C 36.183594 93.050781 36.207031 91.3125 36.183594 89.570312 L 41.800781 86.292969 L 41.699219 86.109375 L 36.183594 89.324219 L 36.183594 88.546875 C 36.164062 86.804688 36.121094 85.066406 36.0625 83.324219 L 41.351562 80.601562 C 43.230469 83.9375 43.945312 87.726562 43.128906 91.289062 Z M 35.816406 100.832031 C 35.941406 98.910156 36.042969 96.984375 36.101562 95.058594 L 43.066406 91.578125 C 41.761719 96.777344 37.695312 99.707031 35.816406 100.832031 Z M 35.753906 101.101562 C 37.59375 100.054688 42.003906 96.984375 43.308594 91.394531 C 44.046875 88.21875 43.660156 84.882812 42.167969 81.707031 C 40.679688 78.511719 38.203125 75.808594 35.039062 73.90625 L 34.980469 73.863281 L 34.917969 73.90625 C 34.613281 74.109375 27.425781 79.085938 27.8125 87.972656 C 27.914062 90.429688 28.589844 92.539062 29.488281 94.320312 C 31.734375 98.703125 35.410156 100.976562 35.632812 101.101562 L 35.695312 101.140625 L 35.753906 101.101562 "/>
</g>
<path style=" stroke:none;fill-rule:nonzero;fill:rgb(49.409485%,85.099792%,34.118652%);fill-opacity:1;" d="M 118.414062 79.742188 C 127.359375 70.667969 124.582031 58.441406 124.398438 57.765625 C 113.65625 55.65625 103.242188 60.140625 98.648438 68.457031 C 94.320312 76.28125 96.792969 84.472656 97.363281 86.191406 C 98.238281 86.355469 109.839844 88.445312 118.414062 79.742188 Z M 20.460938 96.941406 C 15.03125 90.082031 17.828125 81.933594 17.992188 81.460938 C 25.503906 80.824219 32.285156 84.675781 34.816406 90.695312 C 37.183594 96.371094 34.898438 101.796875 34.386719 102.921875 C 33.773438 102.984375 25.667969 103.558594 20.460938 96.941406 "/>
<path style=" stroke:none;fill-rule:nonzero;fill:rgb(100%,100%,100%);fill-opacity:1;" d="M 35.835938 59.464844 C 35.835938 59.140625 35.796875 58.648438 35.613281 58.074219 C 35.265625 58.277344 34.796875 58.523438 34.183594 58.6875 C 33.734375 58.8125 33.324219 58.851562 32.996094 58.871094 C 32.773438 59.078125 32.652344 59.363281 32.710938 59.652344 C 32.773438 59.957031 33.039062 60.121094 33.078125 60.140625 L 33.078125 61.882812 C 33.078125 61.925781 33.203125 62.332031 33.609375 62.496094 C 33.917969 62.621094 34.285156 62.558594 34.550781 62.3125 C 34.589844 62.007812 34.632812 61.71875 34.671875 61.414062 C 34.878906 61.371094 35.203125 61.25 35.449219 60.980469 C 35.835938 60.574219 35.835938 60.039062 35.835938 59.464844 Z M 41.25 73.535156 L 40.449219 73.414062 C 40.410156 73.453125 40.328125 73.535156 40.167969 73.617188 C 40.714844 73.535156 41.042969 73.515625 41.25 73.535156 Z M 44.226562 70.546875 C 44.1875 70.894531 44.046875 71.570312 43.511719 72.226562 C 42.757812 73.1875 41.71875 73.453125 41.390625 73.535156 C 41.515625 73.554688 41.554688 73.578125 41.574219 73.617188 C 41.617188 73.761719 40.984375 74.089844 40.371094 74.210938 C 39.632812 74.375 39.003906 74.210938 38.59375 74.089844 C 38.675781 74.007812 38.757812 73.882812 38.839844 73.71875 C 38.941406 73.515625 38.980469 73.351562 39.003906 73.226562 C 39.183594 73.269531 39.453125 73.308594 39.777344 73.308594 L 37.082031 72.878906 C 35.714844 72.121094 34.917969 70.730469 35.082031 69.378906 C 35.203125 68.292969 35.898438 67.597656 36.164062 67.351562 C 36.246094 67.1875 36.386719 66.902344 36.695312 66.632812 C 37.183594 66.246094 37.714844 66.203125 37.878906 66.203125 C 37.164062 65.078125 37.105469 64.648438 37.246094 64.484375 C 37.429688 64.300781 37.855469 64.605469 38.65625 64.464844 C 39.125 64.382812 39.207031 64.21875 39.617188 64.15625 C 40.144531 64.074219 40.613281 64.238281 40.941406 64.402344 C 40.800781 64.976562 40.65625 65.570312 40.511719 66.144531 C 40.960938 66.164062 41.738281 66.246094 42.492188 66.738281 C 44.332031 67.925781 44.226562 70.382812 44.226562 70.546875 Z M 58.199219 34.890625 L 58.199219 36.632812 C 58.199219 36.671875 58.316406 37.082031 58.726562 37.246094 C 59.03125 37.371094 59.402344 37.308594 59.667969 37.0625 C 59.707031 36.753906 59.746094 36.46875 59.789062 36.160156 C 59.996094 36.121094 60.320312 35.996094 60.5625 35.730469 C 60.933594 35.320312 60.933594 34.789062 60.933594 34.214844 C 60.933594 33.886719 60.894531 33.398438 60.710938 32.824219 C 60.359375 33.027344 59.890625 33.273438 59.28125 33.4375 C 58.828125 33.5625 58.421875 33.601562 58.09375 33.621094 C 57.867188 33.828125 57.75 34.113281 57.808594 34.402344 C 57.890625 34.707031 58.15625 34.871094 58.199219 34.890625 Z M 66.976562 29.566406 C 66.835938 29.035156 66.714844 28.769531 66.589844 28.769531 C 66.425781 28.789062 66.304688 29.382812 66.222656 30.589844 C 66.222656 30.632812 66.261719 30.941406 66.527344 31.125 C 66.75 31.289062 67.058594 31.289062 67.324219 31.164062 C 68.488281 29.792969 68.980469 28.996094 68.816406 28.808594 C 68.671875 28.644531 68.0625 28.914062 66.976562 29.566406 Z M 52.316406 28.6875 C 52.542969 28.605469 52.644531 28.441406 52.660156 28.398438 C 52.746094 27.210938 52.683594 26.578125 52.480469 26.515625 C 52.335938 26.476562 52.113281 26.722656 51.804688 27.234375 C 50.90625 26.496094 50.398438 26.167969 50.296875 26.269531 C 50.171875 26.394531 50.660156 27.191406 51.804688 28.644531 C 51.867188 28.667969 52.070312 28.769531 52.316406 28.6875 Z M 59.523438 46.339844 C 59.464844 48 59.382812 50.332031 59.363281 51.171875 Z M 66.507812 55.902344 C 66.671875 57.132812 66.917969 58.976562 67.324219 61.25 C 66.9375 61.351562 66.570312 61.433594 66.179688 61.535156 L 62.769531 53.324219 C 61.542969 52.769531 60.546875 52.320312 59.339844 51.789062 L 59.339844 51.765625 C 59.28125 53.753906 59.195312 54.695312 58.503906 55.453125 C 57.808594 56.210938 56.890625 56.375 56.132812 56.519531 C 53.480469 56.988281 50.824219 57.4375 48.152344 57.828125 C 48.050781 57.234375 47.964844 56.640625 47.863281 56.027344 L 54.828125 53.652344 C 54.890625 50.949219 54.972656 48.246094 55.03125 45.5625 L 60.851562 46.421875 C 61.425781 46.894531 62.21875 47.589844 63.140625 48.46875 C 64.300781 49.597656 64.894531 50.148438 65.304688 50.761719 C 66.140625 52.011719 66.140625 53.015625 66.507812 55.902344 Z M 88.765625 5.832031 L 88.765625 7.574219 C 88.765625 7.613281 88.890625 8.023438 89.296875 8.1875 C 89.605469 8.308594 89.96875 8.25 90.234375 8.003906 C 90.277344 7.695312 90.320312 7.410156 90.359375 7.101562 C 90.5625 7.0625 90.886719 6.9375 91.136719 6.671875 C 91.5 6.261719 91.5 5.730469 91.5 5.15625 C 91.5 4.828125 91.460938 4.335938 91.277344 3.765625 C 90.929688 3.96875 90.460938 4.214844 89.847656 4.378906 C 89.398438 4.5 88.992188 4.542969 88.664062 4.5625 C 88.4375 4.769531 88.316406 5.054688 88.378906 5.339844 C 88.460938 5.648438 88.703125 5.8125 88.765625 5.832031 Z M 92.929688 35.097656 L 91.6875 35.097656 L 89.949219 24.40625 L 89.949219 24.261719 L 88.539062 35.097656 L 87.296875 35.097656 L 86.804688 25.019531 L 87.109375 17.320312 L 92.054688 17.320312 L 92.808594 26.496094 L 92.929688 35.097656 "/>
<g clip-path="url(#clip3)" clip-rule="nonzero">
<path style=" stroke:none;fill-rule:nonzero;fill:rgb(5.879211%,5.488586%,4.708862%);fill-opacity:1;" d="M 115.332031 68.394531 C 117.683594 66 120.070312 63.664062 122.480469 61.390625 L 122.277344 61.167969 C 119.824219 63.460938 117.394531 65.835938 115.027344 68.253906 L 112.023438 60.285156 C 116.027344 59.035156 120.457031 58.730469 124.886719 59.570312 C 125.050781 60.246094 125.828125 64.011719 125.113281 68.722656 Z M 123.175781 75.257812 L 109.125 74.949219 C 109.351562 74.683594 109.59375 74.4375 109.820312 74.171875 C 111.535156 72.308594 113.269531 70.464844 115.046875 68.660156 L 125.09375 69.03125 C 124.765625 71.015625 124.171875 73.125 123.175781 75.257812 Z M 118.949219 81.316406 C 110.898438 89.46875 100.078125 88.074219 98.261719 87.769531 C 99.996094 85.578125 101.792969 83.386719 103.609375 81.234375 L 113.394531 80.703125 L 113.375 80.394531 L 103.878906 80.90625 C 105.511719 78.984375 107.164062 77.097656 108.859375 75.257812 L 123.03125 75.5625 C 122.070312 77.527344 120.746094 79.496094 118.949219 81.316406 Z M 99.261719 70.503906 L 103.367188 81.070312 C 101.550781 83.203125 99.769531 85.371094 98.035156 87.5625 C 97.097656 84.53125 95.585938 77.40625 99.261719 70.503906 Z M 111.761719 60.367188 L 114.824219 68.476562 C 113.042969 70.28125 111.308594 72.121094 109.617188 73.964844 C 109.367188 74.230469 109.105469 74.519531 108.859375 74.785156 L 106.042969 65.917969 L 105.753906 66 L 108.613281 75.03125 C 106.917969 76.914062 105.226562 78.820312 103.589844 80.765625 L 99.445312 70.117188 C 102.039062 65.507812 106.492188 62.109375 111.761719 60.367188 Z M 125.175781 59.40625 L 125.152344 59.304688 L 125.050781 59.28125 C 119.78125 58.257812 114.496094 58.75 109.777344 60.738281 C 105.101562 62.703125 101.425781 65.917969 99.140625 70.054688 C 95.097656 77.363281 96.871094 84.984375 97.832031 87.910156 L 97.855469 87.992188 L 97.933594 88.015625 C 98.300781 88.097656 104.46875 89.242188 111.148438 86.722656 C 113.84375 85.699219 116.617188 84.082031 119.128906 81.523438 C 128.214844 72.308594 125.320312 59.9375 125.175781 59.40625 Z M 33.8125 103.824219 C 32.792969 102.207031 31.730469 100.589844 30.667969 98.96875 L 34.265625 92.046875 C 36.246094 97.066406 34.671875 101.816406 33.8125 103.824219 Z M 19.96875 97.988281 C 18.867188 96.59375 18.109375 95.160156 17.601562 93.75 L 27.320312 94.609375 C 28.34375 96 29.320312 97.414062 30.300781 98.847656 L 23.847656 97.78125 L 23.808594 97.988281 L 30.445312 99.09375 C 31.527344 100.710938 32.589844 102.328125 33.609375 103.96875 C 32.382812 104.027344 24.871094 104.171875 19.96875 97.988281 Z M 16.683594 89.140625 L 23.582031 89.652344 C 24.667969 91.023438 25.726562 92.417969 26.75 93.808594 C 26.890625 93.992188 27.035156 94.199219 27.175781 94.382812 L 17.539062 93.542969 C 17.007812 92.007812 16.765625 90.511719 16.683594 89.140625 Z M 17.519531 82.667969 C 20.621094 82.421875 23.625 82.957031 26.28125 84.125 L 23.625 89.34375 C 22.175781 87.523438 20.703125 85.71875 19.195312 83.960938 L 19.03125 84.101562 C 20.519531 85.84375 21.96875 87.625 23.398438 89.425781 L 16.660156 88.9375 C 16.539062 85.636719 17.355469 83.121094 17.519531 82.667969 Z M 34.140625 91.804688 L 30.527344 98.785156 C 29.546875 97.332031 28.546875 95.898438 27.503906 94.484375 L 30.136719 88.527344 L 29.953125 88.445312 L 27.363281 94.300781 C 27.21875 94.097656 27.054688 93.890625 26.914062 93.6875 C 25.890625 92.292969 24.828125 90.902344 23.765625 89.53125 L 26.460938 84.207031 C 29.914062 85.78125 32.710938 88.445312 34.140625 91.804688 Z M 27.769531 84.613281 C 24.6875 82.914062 21.113281 82.179688 17.4375 82.484375 L 17.375 82.484375 L 17.355469 82.546875 C 17.234375 82.894531 14.3125 91.148438 19.828125 98.128906 C 21.359375 100.054688 23.136719 101.386719 24.890625 102.289062 C 29.261719 104.519531 33.570312 104.191406 33.835938 104.152344 L 33.894531 104.152344 L 33.917969 104.089844 C 34.792969 102.164062 36.570312 97.085938 34.34375 91.78125 C 33.097656 88.773438 30.8125 86.292969 27.769531 84.613281 "/>
</g>
<path style=" stroke:none;fill-rule:nonzero;fill:rgb(49.409485%,85.099792%,34.118652%);fill-opacity:1;" d="M 44.148438 88.8125 L 44.148438 75.746094 L 57.5 75.746094 L 57.5 62.128906 L 71.796875 62.128906 L 71.796875 48.734375 L 85.519531 48.734375 L 85.519531 36.222656 L 99.097656 36.222656 L 99.097656 102.636719 L 30.140625 102.636719 L 30.140625 89.039062 C 34.816406 88.957031 39.472656 88.894531 44.148438 88.8125 "/>
<g clip-path="url(#clip4)" clip-rule="nonzero">
<path style=" stroke:none;fill-rule:nonzero;fill:rgb(5.879211%,5.488586%,4.708862%);fill-opacity:1;" d="M 70.308594 63.5625 L 70.308594 50.292969 C 70.308594 50.230469 70.367188 50.167969 70.425781 50.167969 L 84.027344 50.167969 L 84.027344 37.78125 C 84.027344 37.71875 84.089844 37.65625 84.148438 37.65625 L 97.730469 37.65625 C 97.773438 37.65625 97.789062 37.675781 97.8125 37.699219 C 97.8125 37.738281 97.832031 37.757812 97.832031 37.800781 L 97.058594 104.375 C 97.058594 104.4375 96.996094 104.5 96.933594 104.5 C 96.871094 104.5 96.808594 104.4375 96.808594 104.375 L 97.585938 37.921875 L 84.25 37.921875 L 84.25 104.214844 C 84.25 104.273438 84.191406 104.335938 84.132812 104.335938 C 84.070312 104.335938 84.007812 104.273438 84.007812 104.214844 L 84.007812 50.4375 L 70.53125 50.4375 L 70.53125 104.214844 C 70.53125 104.273438 70.46875 104.335938 70.410156 104.335938 C 70.347656 104.335938 70.285156 104.273438 70.285156 104.214844 L 70.285156 63.828125 L 56.257812 63.828125 L 56.257812 104.214844 C 56.257812 104.273438 56.195312 104.335938 56.132812 104.335938 C 56.070312 104.335938 56.011719 104.273438 56.011719 104.214844 L 56.011719 77.445312 L 42.902344 77.445312 L 42.902344 104.214844 C 42.902344 104.273438 42.839844 104.335938 42.78125 104.335938 C 42.71875 104.335938 42.65625 104.273438 42.65625 104.214844 L 42.65625 90.511719 L 28.894531 90.71875 L 28.894531 104.214844 C 28.894531 104.273438 28.832031 104.335938 28.769531 104.335938 C 28.710938 104.335938 28.648438 104.273438 28.648438 104.214844 L 28.648438 90.59375 C 28.648438 90.53125 28.710938 90.472656 28.769531 90.472656 L 42.65625 90.246094 L 42.65625 77.304688 C 42.65625 77.242188 42.71875 77.179688 42.78125 77.179688 L 56.011719 77.179688 L 56.011719 63.683594 C 56.011719 63.625 56.070312 63.5625 56.132812 63.5625 L 70.308594 63.5625 "/>
</g>
<path style=" stroke:none;fill-rule:nonzero;fill:rgb(100%,100%,100%);fill-opacity:1;" d="M 88.992188 5.484375 C 89.949219 5.257812 90.421875 5.074219 90.421875 4.953125 C 90.421875 4.871094 90.15625 4.808594 89.664062 4.769531 C 90.09375 4.5625 90.503906 4.378906 90.929688 4.171875 C 90.929688 4.132812 89.847656 3.949219 88.992188 4.378906 C 88.789062 4.480469 88.460938 4.707031 88.152344 5.136719 Z M 35.796875 80.398438 C 35 83.058594 34.222656 85.742188 33.429688 88.402344 L 32.039062 88.402344 L 32.816406 80.804688 L 31.261719 74.230469 C 32.855469 73.554688 34.449219 72.878906 36.0625 72.203125 C 37.082031 73.617188 38.085938 75.542969 38.390625 77.917969 C 38.574219 79.3125 38.46875 80.398438 38.265625 82.28125 C 38.101562 83.816406 37.777344 85.925781 37.164062 88.402344 L 35.777344 88.402344 L 35.796875 80.394531 L 34.019531 75.707031 "/>
<path style=" stroke:none;fill-rule:nonzero;fill:rgb(9.01947%,84.709167%,88.62915%);fill-opacity:1;" d="M 92.316406 12.324219 L 92.316406 14.761719 C 92.441406 14.617188 92.683594 14.351562 92.769531 13.921875 C 92.929688 13.0625 92.378906 12.40625 92.316406 12.324219 Z M 94.460938 14.3125 C 94.074219 14.964844 93.382812 15.949219 92.199219 16.910156 L 92.199219 17.382812 L 86.582031 17.382812 L 86.582031 11.320312 C 86.316406 11.257812 85.945312 11.175781 85.5 11.054688 C 83.742188 10.582031 82.882812 10.339844 82.703125 9.847656 C 82.4375 9.089844 83.699219 8.023438 84.703125 7.164062 C 85.886719 6.160156 87.03125 5.527344 87.867188 5.136719 C 88.214844 5.257812 88.582031 5.363281 88.929688 5.484375 C 86.886719 7.308594 85.945312 8.351562 86.132812 8.617188 C 86.277344 8.84375 87.171875 8.535156 88.789062 7.714844 C 88.789062 7.738281 88.992188 8.1875 89.480469 8.269531 C 89.890625 8.332031 90.171875 8.066406 90.195312 8.023438 L 91.5625 8.269531 C 92.890625 9.128906 93.746094 10.03125 94.28125 10.644531 C 94.914062 11.402344 95.074219 11.8125 95.136719 12.222656 C 95.160156 12.425781 95.21875 13.0625 94.460938 14.3125 Z M 33.121094 61.78125 C 32.714844 62.066406 32.140625 62.578125 31.671875 63.359375 C 31.183594 64.175781 31.019531 64.953125 30.9375 65.609375 C 30.546875 68.539062 30.917969 73.800781 30.9375 74.210938 C 31.527344 74.210938 32.324219 74.171875 33.246094 73.902344 C 34.429688 73.578125 35.304688 73.042969 35.859375 72.65625 C 36.734375 73.167969 37.59375 73.699219 38.46875 74.210938 C 38.613281 74.066406 38.816406 73.820312 38.941406 73.453125 C 39.003906 73.269531 39.023438 73.125 39.023438 72.984375 C 38.757812 72.777344 38.367188 72.46875 37.898438 72.082031 C 36.695312 71.058594 36.082031 70.546875 35.859375 69.992188 C 35.734375 69.707031 35.449219 68.785156 36.246094 67.289062 C 36.101562 66.695312 35.960938 66.0625 35.777344 65.445312 C 35.53125 64.503906 35.246094 63.625 34.980469 62.785156 C 34.855469 62.640625 34.714844 62.476562 34.589844 62.332031 C 34.347656 62.578125 33.980469 62.640625 33.652344 62.519531 C 33.347656 62.394531 33.140625 62.109375 33.121094 61.78125 Z M 58.929688 37.308594 C 59.363281 37.390625 59.667969 37.105469 59.6875 37.082031 L 60.6875 37.144531 L 63.382812 35.464844 L 66.242188 30.613281 C 66.609375 30.796875 66.976562 30.980469 67.347656 31.164062 C 67.039062 32.535156 66.367188 34.707031 64.773438 36.941406 C 63.566406 38.660156 62.21875 39.828125 61.238281 40.566406 L 61.238281 46.484375 C 60.238281 46.460938 59.09375 46.378906 57.867188 46.195312 C 56.667969 46.011719 55.582031 45.765625 54.640625 45.5 L 55.503906 39.867188 C 54.640625 38.824219 53.375 37.023438 52.558594 34.480469 C 51.785156 32.066406 51.742188 29.957031 51.828125 28.644531 L 52.683594 28.398438 L 54.074219 33.664062 L 57.382812 36.632812 L 58.257812 36.632812 C 58.316406 36.980469 58.582031 37.246094 58.929688 37.308594 "/>
<path style=" stroke:none;fill-rule:nonzero;fill:rgb(5.879211%,5.488586%,4.708862%);fill-opacity:1;" d="M 66.222656 30.734375 C 66.28125 30.734375 66.34375 30.695312 66.34375 30.613281 C 66.425781 29.363281 66.546875 29.015625 66.589844 28.933594 C 66.632812 28.996094 66.714844 29.15625 66.835938 29.609375 C 66.835938 29.648438 66.875 29.671875 66.917969 29.691406 C 66.957031 29.710938 66.996094 29.710938 67.019531 29.691406 C 68.46875 28.789062 68.691406 28.890625 68.714844 28.914062 C 68.734375 28.953125 68.773438 29.28125 67.222656 31.105469 C 67.183594 31.164062 67.183594 31.226562 67.242188 31.289062 C 67.261719 31.308594 67.304688 31.308594 67.324219 31.308594 C 67.363281 31.308594 67.386719 31.289062 67.425781 31.265625 C 69.019531 29.382812 69.082031 28.933594 68.917969 28.75 C 68.773438 28.585938 68.449219 28.5625 67.058594 29.402344 C 66.894531 28.871094 66.773438 28.667969 66.589844 28.6875 C 66.40625 28.707031 66.222656 28.851562 66.101562 30.632812 C 66.101562 30.671875 66.160156 30.734375 66.222656 30.734375 Z M 51.828125 28.769531 C 51.84375 28.769531 51.886719 28.769531 51.910156 28.75 C 51.96875 28.707031 51.96875 28.625 51.929688 28.5625 C 50.746094 27.046875 50.5 26.535156 50.4375 26.371094 C 50.558594 26.414062 50.886719 26.597656 51.742188 27.316406 C 51.765625 27.335938 51.804688 27.355469 51.84375 27.335938 C 51.886719 27.335938 51.910156 27.316406 51.929688 27.273438 C 52.316406 26.617188 52.4375 26.617188 52.457031 26.617188 C 52.457031 26.617188 52.683594 26.699219 52.558594 28.359375 C 52.558594 28.421875 52.601562 28.480469 52.683594 28.503906 C 52.746094 28.503906 52.804688 28.460938 52.828125 28.378906 C 52.949219 26.722656 52.765625 26.433594 52.542969 26.371094 C 52.335938 26.3125 52.113281 26.515625 51.804688 27.007812 C 50.582031 26.003906 50.375 26.023438 50.253906 26.148438 C 50.132812 26.25 49.96875 26.414062 51.742188 28.6875 C 51.742188 28.769531 51.785156 28.769531 51.828125 28.769531 Z M 35.714844 59.464844 C 35.714844 59.058594 35.652344 58.648438 35.550781 58.257812 C 35.140625 58.503906 34.691406 58.6875 34.222656 58.8125 C 33.835938 58.914062 33.449219 58.976562 33.058594 58.996094 C 32.875 59.160156 32.792969 59.40625 32.855469 59.628906 C 32.917969 59.875 33.101562 60.019531 33.160156 60.039062 C 33.203125 60.0625 33.222656 60.101562 33.222656 60.140625 L 33.222656 61.863281 C 33.242188 61.945312 33.34375 62.25 33.671875 62.375 C 33.917969 62.476562 34.222656 62.414062 34.449219 62.230469 L 34.570312 61.371094 C 34.570312 61.332031 34.613281 61.269531 34.671875 61.269531 C 34.980469 61.207031 35.203125 61.0625 35.386719 60.878906 C 35.714844 60.53125 35.714844 60.039062 35.714844 59.464844 Z M 32.121094 58.75 C 32.40625 57.726562 33.46875 57.417969 33.527344 57.417969 C 34.753906 56.722656 35.878906 56.886719 36.164062 57.378906 C 36.386719 57.789062 36.0625 58.421875 35.917969 58.667969 C 35.957031 58.933594 36 59.199219 36 59.488281 C 36 60.082031 36 60.65625 35.59375 61.105469 C 35.40625 61.308594 35.140625 61.472656 34.835938 61.554688 L 34.714844 62.375 C 34.714844 62.394531 34.691406 62.4375 34.671875 62.457031 C 34.46875 62.640625 34.222656 62.742188 33.976562 62.742188 C 33.855469 62.742188 33.734375 62.722656 33.609375 62.683594 C 33.140625 62.496094 33.019531 62.027344 32.996094 61.964844 L 32.996094 60.960938 C 32.242188 60.410156 31.894531 59.527344 32.121094 58.75 Z M 37.285156 88.421875 C 37.796875 86.394531 38.164062 84.328125 38.390625 82.28125 C 38.613281 80.335938 38.65625 78.859375 38.511719 77.878906 C 38.289062 76.21875 37.738281 74.621094 36.859375 73.125 C 36.816406 73.066406 36.753906 73.042969 36.695312 73.085938 C 36.632812 73.125 36.613281 73.1875 36.652344 73.25 C 37.511719 74.722656 38.0625 76.28125 38.289062 77.898438 C 38.410156 78.859375 38.367188 80.3125 38.164062 82.238281 C 37.941406 84.226562 37.574219 86.253906 37.082031 88.261719 L 35.917969 88.261719 L 35.917969 80.335938 L 34.164062 75.644531 C 34.140625 75.582031 34.058594 75.542969 34 75.5625 C 33.9375 75.582031 33.898438 75.664062 33.917969 75.726562 L 35.652344 80.375 L 33.324219 88.261719 L 32.160156 88.261719 L 32.917969 80.804688 L 32.917969 80.765625 L 31.386719 74.191406 C 31.363281 74.128906 31.304688 74.089844 31.242188 74.089844 C 31.179688 74.109375 31.140625 74.171875 31.140625 74.230469 L 32.691406 80.785156 L 31.917969 88.363281 C 31.917969 88.402344 31.917969 88.421875 31.957031 88.464844 C 31.976562 88.484375 31.996094 88.484375 32.019531 88.503906 C 31.957031 88.667969 31.917969 88.832031 31.855469 88.996094 C 33.855469 89.160156 34.878906 89.179688 34.898438 88.996094 C 34.917969 88.875 34.46875 88.691406 33.550781 88.402344 L 35.652344 81.257812 L 35.652344 88.402344 C 35.652344 88.464844 35.714844 88.527344 35.777344 88.527344 L 35.777344 88.957031 C 37.714844 89.058594 38.695312 89.039062 38.714844 88.914062 C 38.714844 88.792969 38.246094 88.628906 37.285156 88.421875 Z M 67.449219 61.351562 L 67.449219 61.308594 C 67.121094 59.507812 66.855469 57.707031 66.632812 55.964844 C 66.570312 55.554688 66.527344 55.1875 66.484375 54.859375 C 66.242188 52.8125 66.121094 51.867188 65.386719 50.761719 C 64.976562 50.148438 64.386719 49.574219 63.21875 48.449219 C 62.484375 47.730469 61.710938 47.054688 60.933594 46.402344 C 60.871094 46.359375 60.8125 46.359375 60.75 46.421875 C 60.710938 46.484375 60.710938 46.542969 60.769531 46.605469 C 61.542969 47.242188 62.300781 47.9375 63.039062 48.632812 C 64.199219 49.738281 64.773438 50.3125 65.179688 50.90625 C 65.894531 51.949219 66 52.8125 66.242188 54.878906 C 66.28125 55.207031 66.324219 55.574219 66.382812 55.984375 C 66.609375 57.707031 66.875 59.464844 67.183594 61.226562 L 66.261719 61.453125 L 62.894531 53.34375 C 62.871094 53.324219 62.851562 53.28125 62.832031 53.28125 L 59.464844 51.765625 C 59.464844 51.644531 59.464844 51.519531 59.484375 51.398438 L 59.644531 46.402344 C 59.644531 46.339844 59.585938 46.277344 59.523438 46.277344 C 59.464844 46.277344 59.402344 46.339844 59.402344 46.402344 L 59.238281 51.417969 C 59.238281 51.5625 59.238281 51.726562 59.21875 51.847656 C 59.15625 53.835938 59.074219 54.714844 58.421875 55.433594 C 57.75 56.167969 56.808594 56.332031 56.132812 56.457031 C 53.5 56.925781 50.863281 57.355469 48.269531 57.746094 L 48.027344 56.167969 L 54.890625 53.835938 C 54.929688 53.816406 54.972656 53.773438 54.972656 53.710938 L 55.175781 45.621094 C 55.175781 45.5625 55.113281 45.5 55.050781 45.5 C 54.992188 45.5 54.929688 45.5625 54.929688 45.621094 L 54.726562 53.628906 L 47.824219 55.964844 C 47.761719 55.984375 47.742188 56.027344 47.742188 56.085938 L 46.558594 56.128906 C 46.84375 58.769531 47.148438 60.082031 47.453125 60.082031 C 47.679688 60.082031 47.902344 59.386719 48.128906 57.992188 L 48.167969 57.992188 C 50.785156 57.601562 53.480469 57.171875 56.15625 56.679688 C 56.871094 56.558594 57.851562 56.375 58.582031 55.574219 C 59.28125 54.816406 59.382812 53.875 59.441406 52.011719 L 62.667969 53.464844 L 66.078125 61.636719 C 66.101562 61.679688 66.140625 61.699219 66.179688 61.71875 L 66.140625 62.128906 C 68.527344 62.3125 69.734375 62.3125 69.753906 62.128906 C 69.796875 61.984375 69.019531 61.71875 67.449219 61.351562 Z M 93.054688 35.199219 L 93.054688 35.160156 L 92.910156 26.558594 L 92.15625 17.382812 C 92.15625 17.320312 92.09375 17.261719 92.011719 17.261719 C 91.953125 17.261719 91.890625 17.320312 91.890625 17.402344 L 92.648438 26.578125 L 92.789062 35.054688 L 91.765625 35.054688 L 90.054688 24.46875 L 90.054688 24.449219 L 90.070312 24.367188 L 90.070312 21.007812 C 90.070312 20.945312 90.011719 20.886719 89.949219 20.886719 C 89.890625 20.886719 89.828125 20.945312 89.828125 21.007812 L 89.828125 24.304688 L 88.4375 35.035156 L 87.417969 35.035156 L 86.929688 25.082031 L 87.234375 17.382812 C 87.234375 17.320312 87.195312 17.261719 87.109375 17.261719 C 87.050781 17.261719 86.988281 17.320312 86.988281 17.382812 L 86.683594 25.101562 L 87.171875 35.179688 L 87.171875 35.21875 C 86.046875 35.628906 85.5 35.917969 85.519531 36.101562 C 85.5625 36.347656 86.621094 36.386719 88.703125 36.242188 L 88.539062 35.28125 C 88.601562 35.28125 88.640625 35.242188 88.640625 35.179688 L 89.929688 25.265625 L 91.542969 35.199219 C 91.542969 35.261719 91.601562 35.300781 91.664062 35.300781 L 91.644531 36.242188 C 93.730469 36.324219 94.789062 36.242188 94.828125 36.019531 C 94.851562 35.835938 94.257812 35.546875 93.054688 35.199219 Z M 60.828125 34.214844 C 60.828125 33.808594 60.769531 33.398438 60.667969 33.007812 C 60.257812 33.253906 59.808594 33.4375 59.339844 33.5625 C 58.953125 33.664062 58.566406 33.726562 58.175781 33.746094 C 57.992188 33.910156 57.910156 34.15625 57.972656 34.378906 C 58.035156 34.625 58.214844 34.769531 58.277344 34.789062 C 58.316406 34.808594 58.339844 34.851562 58.339844 34.890625 L 58.339844 36.613281 C 58.359375 36.695312 58.464844 37 58.789062 37.125 C 59.03125 37.226562 59.339844 37.164062 59.566406 36.980469 L 59.6875 36.121094 C 59.6875 36.078125 59.730469 36.019531 59.789062 36.019531 C 60.097656 35.957031 60.320312 35.8125 60.503906 35.628906 C 60.828125 35.28125 60.828125 34.789062 60.828125 34.214844 Z M 57.238281 33.480469 C 56.890625 33.007812 56.992188 32.375 57.398438 32.066406 C 57.75 31.800781 58.277344 31.820312 58.648438 32.128906 C 58.6875 32.046875 59.117188 31.265625 59.933594 31.164062 C 60.769531 31.0625 61.75 31.699219 61.730469 32.433594 C 61.710938 32.945312 61.21875 33.316406 61.035156 33.4375 C 61.074219 33.683594 61.097656 33.949219 61.097656 34.195312 C 61.097656 34.789062 61.097656 35.363281 60.6875 35.8125 C 60.503906 36.019531 60.238281 36.183594 59.933594 36.265625 L 59.808594 37.082031 C 59.808594 37.105469 59.789062 37.144531 59.769531 37.164062 C 59.566406 37.347656 59.320312 37.453125 59.074219 37.453125 C 58.953125 37.453125 58.828125 37.429688 58.707031 37.390625 C 58.238281 37.207031 58.113281 36.734375 58.09375 36.671875 L 58.09375 35.691406 C 57.890625 35.589844 57.484375 35.34375 57.257812 34.832031 C 56.992188 34.175781 57.195312 33.601562 57.238281 33.480469 Z M 40.492188 66.019531 L 40.882812 64.441406 C 40.472656 64.257812 40.085938 64.199219 39.71875 64.257812 C 39.53125 64.277344 39.410156 64.339844 39.285156 64.382812 C 39.167969 64.441406 39.019531 64.503906 38.757812 64.546875 C 38.304688 64.628906 37.980469 64.585938 37.738281 64.546875 C 37.550781 64.523438 37.449219 64.503906 37.410156 64.546875 C 37.367188 64.605469 37.265625 64.851562 38.023438 66.0625 C 38.367188 66.164062 38.738281 66.226562 39.082031 66.226562 C 39.574219 66.246094 40.042969 66.164062 40.492188 66.019531 Z M 44.433594 70.546875 C 44.375 70.996094 44.1875 71.671875 43.699219 72.308594 C 43.046875 73.148438 42.1875 73.472656 41.675781 73.617188 C 41.675781 73.660156 41.675781 73.679688 41.636719 73.742188 C 41.515625 73.945312 40.921875 74.230469 40.371094 74.335938 C 40.144531 74.375 39.921875 74.394531 39.695312 74.394531 C 39.308594 74.394531 38.917969 74.335938 38.511719 74.191406 C 38.453125 74.171875 38.410156 74.089844 38.429688 74.027344 C 38.453125 73.964844 38.53125 73.925781 38.59375 73.945312 C 39.183594 74.148438 39.757812 74.191406 40.308594 74.066406 C 40.777344 73.964844 41.207031 73.761719 41.371094 73.636719 C 41.25 73.617188 40.921875 73.617188 40.1875 73.71875 C 40.125 73.71875 40.066406 73.699219 40.066406 73.636719 C 40.042969 73.578125 40.066406 73.515625 40.101562 73.496094 C 40.1875 73.453125 40.226562 73.414062 40.269531 73.371094 L 40.167969 73.371094 C 40.042969 73.371094 39.898438 73.390625 39.734375 73.390625 C 39.472656 73.390625 39.207031 73.351562 38.941406 73.308594 C 38.878906 73.289062 38.839844 73.226562 38.839844 73.167969 C 38.859375 73.105469 38.917969 73.066406 38.980469 73.066406 C 39.226562 73.105469 39.472656 73.148438 39.734375 73.148438 C 39.898438 73.148438 40.042969 73.148438 40.144531 73.125 C 40.390625 73.105469 40.550781 73.105469 40.59375 73.25 C 40.613281 73.308594 40.59375 73.371094 40.550781 73.433594 C 40.984375 73.390625 41.25 73.390625 41.414062 73.414062 C 41.820312 73.332031 42.78125 73.066406 43.496094 72.164062 C 43.945312 71.570312 44.109375 70.957031 44.167969 70.523438 C 44.167969 70.421875 44.289062 68.007812 42.492188 66.820312 C 41.941406 66.46875 41.289062 66.265625 40.59375 66.246094 C 40.144531 66.410156 39.65625 66.492188 39.183594 66.492188 L 39.082031 66.492188 C 38.695312 66.492188 38.304688 66.410156 37.921875 66.308594 C 37.675781 66.308594 37.226562 66.386719 36.816406 66.714844 C 36.613281 66.902344 36.429688 67.125 36.304688 67.371094 C 36.285156 67.433594 36.203125 67.453125 36.144531 67.433594 C 36.082031 67.414062 36.0625 67.332031 36.082031 67.269531 C 36.203125 66.984375 36.410156 66.714844 36.652344 66.511719 C 37.023438 66.203125 37.429688 66.101562 37.714844 66.0625 C 37.140625 65.140625 37 64.605469 37.226562 64.359375 C 37.347656 64.21875 37.53125 64.257812 37.777344 64.277344 C 38 64.320312 38.304688 64.359375 38.714844 64.277344 C 38.941406 64.238281 39.0625 64.175781 39.183594 64.136719 C 39.308594 64.074219 39.453125 64.011719 39.675781 63.992188 C 40.125 63.929688 40.59375 64.011719 41.085938 64.257812 C 41.148438 64.277344 41.164062 64.339844 41.148438 64.402344 L 40.757812 66 C 41.453125 66.039062 42.105469 66.246094 42.65625 66.613281 C 44.558594 67.863281 44.433594 70.445312 44.433594 70.546875 Z M 87.765625 4.417969 C 87.746094 4.070312 87.722656 3.191406 88.234375 2.945312 C 88.582031 2.78125 89.03125 3.007812 89.152344 3.089844 C 89.621094 2.414062 90.277344 2.003906 90.785156 2.125 C 91.035156 2.1875 91.277344 2.472656 91.789062 3.046875 C 92.199219 3.519531 92.214844 3.660156 92.175781 3.746094 C 92.113281 3.929688 91.808594 3.96875 91.523438 4.359375 C 91.5625 4.625 91.601562 4.890625 91.601562 5.15625 C 91.601562 5.75 91.601562 6.324219 91.195312 6.773438 C 91.011719 6.980469 90.746094 7.144531 90.4375 7.226562 L 90.320312 8.046875 C 90.320312 8.105469 90.257812 8.148438 90.195312 8.148438 L 90.171875 8.148438 C 90.113281 8.148438 90.054688 8.066406 90.070312 8.003906 L 90.195312 7.101562 C 90.195312 7.0625 90.234375 7 90.296875 7 C 90.582031 6.9375 90.828125 6.796875 91.011719 6.613281 C 91.359375 6.242188 91.359375 5.75 91.359375 5.179688 C 91.359375 4.769531 91.296875 4.359375 91.195312 3.96875 C 91.113281 4.011719 91.035156 4.070312 90.929688 4.113281 C 90.949219 4.132812 90.972656 4.175781 90.972656 4.195312 C 90.972656 4.234375 90.949219 4.277344 90.929688 4.296875 L 90.910156 4.316406 L 90.054688 4.726562 C 90.335938 4.769531 90.460938 4.851562 90.480469 4.972656 C 90.503906 5.136719 90.398438 5.300781 88.972656 5.628906 L 88.949219 5.628906 C 88.890625 5.628906 88.847656 5.585938 88.828125 5.527344 C 88.804688 5.464844 88.847656 5.382812 88.929688 5.382812 C 89.765625 5.179688 90.070312 5.054688 90.195312 4.992188 C 90.113281 4.972656 89.949219 4.929688 89.621094 4.910156 C 89.5625 4.910156 89.519531 4.871094 89.5 4.808594 C 89.480469 4.746094 89.519531 4.707031 89.5625 4.664062 L 89.910156 4.5 L 89.890625 4.5 C 89.5 4.605469 89.113281 4.664062 88.726562 4.6875 C 88.539062 4.851562 88.460938 5.09375 88.523438 5.320312 C 88.582031 5.566406 88.765625 5.710938 88.828125 5.730469 C 88.867188 5.75 88.890625 5.792969 88.890625 5.832031 L 88.890625 7.574219 C 88.890625 7.636719 88.828125 7.695312 88.765625 7.695312 C 88.703125 7.695312 88.640625 7.636719 88.640625 7.574219 L 88.640625 6.527344 C 88.277344 6.121094 87.785156 5.382812 87.765625 4.417969 "/>
</g>
</svg>
