<?xml version="1.0" encoding="UTF-8"?>
<svg xmlns="http://www.w3.org/2000/svg" xmlns:xlink="http://www.w3.org/1999/xlink" width="462pt" height="395.999985pt" viewBox="0 0 462 395.999985" version="1.2">
<defs>
<clipPath id="clip1">
  <path d="M 25.058594 99 L 430.554688 99 L 430.554688 380.257812 L 25.058594 380.257812 Z M 25.058594 99 "/>
</clipPath>
<clipPath id="clip2">
  <path d="M 322.578125 25.46875 L 398.328125 25.46875 L 398.328125 101.21875 L 322.578125 101.21875 Z M 322.578125 25.46875 "/>
</clipPath>
</defs>
<g id="surface1">
<rect x="0" y="0" width="462" height="395.999985" style="fill:rgb(100%,100%,100%);fill-opacity:1;stroke:none;"/>
<rect x="0" y="0" width="462" height="395.999985" style="fill:rgb(100%,100%,100%);fill-opacity:1;stroke:none;"/>
<rect x="0" y="0" width="462" height="395.999985" style="fill:rgb(100%,100%,100%);fill-opacity:1;stroke:none;"/>
<path style=" stroke:none;fill-rule:nonzero;fill:rgb(100%,100%,100%);fill-opacity:1;" d="M 138.511719 110.148438 C 141.117188 104.992188 146.449219 101.460938 152.648438 101.460938 L 274.617188 101.460938 C 283.367188 101.460938 290.496094 108.582031 290.496094 117.332031 L 290.496094 149.371094 C 307.703125 143.925781 325.03125 139.8125 350.003906 146.363281 C 360.316406 149.082031 385.40625 155.628906 402.789062 177.472656 C 431.125 213.105469 422.78125 268.839844 401.398438 303.199219 C 367.851562 357.199219 301.214844 365.191406 270.792969 368.84375 C 206.710938 376.550781 154.15625 355.574219 122.226562 337.554688 L 119.734375 337.035156 L 76.21875 337.035156 L 76.21875 333.675781 L 73.730469 328.632812 L 92.5625 317.914062 C 91.402344 316.988281 90.53125 316.292969 89.835938 315.773438 C 66.371094 296.535156 5.125 246.363281 13.003906 180.253906 C 17.464844 143.117188 45.625 98.964844 83.578125 91.550781 C 105.308594 87.320312 121.820312 96.878906 138.511719 110.148438 "/>
<path style=" stroke:none;fill-rule:nonzero;fill:rgb(9.01947%,84.709167%,88.62915%);fill-opacity:1;" d="M 171.304688 262.527344 C 168.234375 262.527344 165.742188 265.019531 165.742188 268.089844 C 165.742188 271.160156 168.234375 273.652344 171.304688 273.652344 C 174.375 273.652344 176.867188 271.160156 176.867188 268.089844 C 176.867188 265.019531 174.375 262.527344 171.304688 262.527344 Z M 155.835938 126.199219 C 152.765625 126.199219 150.273438 128.691406 150.273438 131.757812 C 150.273438 134.828125 152.765625 137.320312 155.835938 137.320312 C 158.90625 137.320312 161.398438 134.828125 161.398438 131.757812 C 161.398438 128.691406 158.90625 126.199219 155.835938 126.199219 Z M 155.71875 304.011719 C 152.648438 304.011719 150.15625 306.5 150.15625 309.574219 C 150.15625 312.644531 152.648438 315.132812 155.71875 315.132812 C 158.789062 315.132812 161.28125 312.644531 161.28125 309.574219 C 161.28125 306.5 158.789062 304.011719 155.71875 304.011719 Z M 155.71875 262.527344 C 152.648438 262.527344 150.15625 265.019531 150.15625 268.089844 C 150.15625 271.160156 152.648438 273.652344 155.71875 273.652344 C 158.789062 273.652344 161.28125 271.160156 161.28125 268.089844 C 161.28125 265.019531 158.789062 262.527344 155.71875 262.527344 Z M 253.992188 184.136719 L 251.90625 185.179688 C 250.574219 185.875 248.949219 185.351562 248.3125 184.019531 L 241.765625 171.390625 C 240.953125 171.738281 240.144531 172.144531 239.390625 172.492188 C 237.652344 170.347656 234.925781 166.347656 233.421875 160.671875 C 232.261719 156.210938 232.378906 152.328125 232.609375 149.777344 C 234.871094 148.851562 237.128906 147.980469 239.449219 146.996094 C 244.257812 145.027344 246.226562 144.101562 247.328125 145.027344 C 247.675781 145.316406 247.847656 145.664062 247.90625 145.898438 C 247.328125 146.128906 246.75 146.363281 246.167969 146.53125 C 246.109375 148.503906 246.226562 150.9375 246.804688 153.601562 C 247.90625 159.164062 250.28125 163.277344 252.078125 165.769531 C 252.136719 165.769531 252.484375 166 252.542969 166.40625 C 252.601562 166.8125 252.3125 167.21875 251.90625 167.332031 C 250.921875 167.625 249.933594 167.972656 248.949219 168.320312 C 251.035156 172.316406 253.121094 176.3125 255.207031 180.3125 C 255.789062 181.820312 255.324219 183.441406 253.992188 184.136719 Z M 348.785156 256.558594 C 347.28125 258.761719 344.730469 261.890625 340.558594 264.960938 L 337.777344 262.527344 C 337.601562 262.410156 337.488281 262.292969 337.3125 262.121094 L 337.777344 261.484375 L 342.875 253.835938 L 335.75 248.214844 L 336.445312 250.589844 L 313.324219 250.589844 L 313.324219 261.945312 L 312.976562 262.121094 C 312.457031 262.179688 309.617188 262.585938 307.007812 260.671875 C 306.777344 260.5 304.34375 258.644531 303.9375 255.515625 C 303.765625 254.066406 303.9375 252.039062 308.050781 246.476562 C 309.789062 244.101562 312.339844 240.972656 315.875 237.613281 C 317.960938 237.148438 320.046875 236.6875 322.132812 236.28125 C 322.539062 237.671875 323.8125 238.65625 325.203125 238.597656 C 326.535156 238.539062 327.753906 237.613281 328.101562 236.28125 L 334.765625 237.035156 C 339.746094 240.972656 343.6875 243.984375 347.222656 246.59375 C 348.4375 247.519531 350.351562 248.910156 350.699219 251.113281 C 350.988281 252.5625 350.523438 254.007812 348.785156 256.558594 "/>
<path style=" stroke:none;fill-rule:nonzero;fill:rgb(9.01947%,84.709167%,88.62915%);fill-opacity:1;" d="M 106.121094 134.367188 L 84.273438 134.367188 C 81.4375 134.367188 79.058594 136.683594 79.058594 139.582031 L 79.058594 154.472656 C 79.058594 157.3125 81.378906 159.6875 84.273438 159.6875 L 90.476562 159.6875 L 95.226562 166.984375 L 99.570312 159.6875 L 106.175781 159.6875 C 109.015625 159.6875 111.390625 157.367188 111.390625 154.472656 L 111.390625 139.523438 C 111.277344 136.683594 108.957031 134.367188 106.121094 134.367188 Z M 346.121094 170.289062 L 346.121094 186.164062 C 346.121094 189.175781 343.628906 191.667969 340.617188 191.667969 L 333.605469 191.667969 L 328.96875 199.433594 L 323.929688 191.667969 L 317.324219 191.667969 C 314.308594 191.667969 311.820312 189.175781 311.820312 186.164062 L 311.820312 170.289062 C 311.820312 167.277344 314.308594 164.785156 317.324219 164.785156 L 340.558594 164.785156 C 343.628906 164.785156 346.121094 167.277344 346.121094 170.289062 "/>
<path style=" stroke:none;fill-rule:nonzero;fill:rgb(5.879211%,5.488586%,4.708862%);fill-opacity:1;" d="M 255.148438 182.222656 C 255.207031 181.585938 254.976562 181.066406 254.800781 180.71875 C 254.6875 180.542969 254.746094 180.371094 254.859375 180.253906 C 255.324219 179.734375 255.382812 179.039062 255.09375 178.457031 C 254.800781 177.9375 254.164062 177.589844 253.527344 177.703125 C 253.355469 177.703125 253.179688 177.648438 253.121094 177.472656 C 253.0625 177.300781 253.121094 177.125 253.296875 177.007812 C 253.816406 176.660156 253.992188 175.964844 253.703125 175.445312 C 253.410156 174.980469 252.773438 174.75 252.253906 174.921875 C 252.019531 174.980469 251.789062 174.921875 251.730469 174.691406 C 251.671875 174.460938 251.730469 174.230469 251.964844 174.171875 C 252.890625 173.824219 253.933594 174.171875 254.398438 175.039062 C 254.746094 175.675781 254.746094 176.371094 254.398438 176.953125 C 254.976562 177.125 255.554688 177.472656 255.84375 178.050781 C 256.308594 178.863281 256.25 179.847656 255.730469 180.601562 C 255.960938 181.066406 256.136719 181.703125 256.078125 182.398438 C 255.902344 183.730469 254.6875 184.890625 253.121094 185.292969 C 253.0625 195.722656 252.195312 206.152344 250.628906 216.175781 C 248.949219 226.894531 247.558594 230.660156 244.835938 231.585938 C 244.371094 231.761719 243.910156 231.820312 243.386719 231.820312 C 237.246094 231.820312 229.25 220.117188 228.265625 218.667969 C 228.148438 218.492188 228.207031 218.203125 228.378906 218.085938 C 228.554688 217.972656 228.785156 218.03125 228.960938 218.203125 C 229.363281 218.78125 238.808594 232.804688 244.546875 230.777344 C 246.574219 230.082031 248.023438 227.53125 249.761719 216.003906 C 251.324219 205.863281 252.136719 195.433594 252.195312 184.890625 L 252.195312 184.773438 C 252.195312 184.773438 252.195312 184.714844 252.253906 184.714844 C 252.253906 184.714844 252.253906 184.65625 252.3125 184.65625 L 252.367188 184.597656 L 252.425781 184.542969 L 252.542969 184.542969 C 253.933594 184.25 254.976562 183.324219 255.148438 182.222656 Z M 238.289062 205.515625 L 240.664062 209.28125 L 243.15625 185.757812 C 242.519531 184.195312 241.589844 181.238281 242.75 178.167969 C 243.734375 175.503906 246.054688 173.359375 247.269531 173.011719 C 247.558594 172.894531 247.847656 172.953125 248.023438 173.070312 C 248.488281 173.359375 248.660156 174.054688 246.402344 178.34375 C 246.285156 178.515625 246.054688 178.632812 245.878906 178.515625 C 245.707031 178.398438 245.589844 178.167969 245.707031 177.996094 C 247.328125 174.921875 247.5 173.996094 247.5 173.707031 C 246.921875 173.824219 244.546875 175.734375 243.503906 178.457031 C 242.460938 181.355469 243.328125 184.136719 243.910156 185.527344 C 243.910156 185.585938 243.96875 185.640625 243.96875 185.757812 L 241.359375 210.554688 C 241.359375 210.730469 241.242188 210.84375 241.070312 210.902344 L 240.953125 210.902344 C 240.839844 210.902344 240.664062 210.84375 240.605469 210.730469 L 237.59375 206.035156 C 237.476562 205.863281 237.535156 205.574219 237.710938 205.457031 C 237.941406 205.226562 238.171875 205.285156 238.289062 205.515625 Z M 327.40625 258.703125 C 327.40625 259.804688 326.535156 260.671875 325.433594 260.671875 C 324.335938 260.671875 323.464844 259.804688 323.464844 258.703125 C 323.464844 257.601562 324.335938 256.734375 325.433594 256.734375 C 326.535156 256.734375 327.40625 257.601562 327.40625 258.703125 Z M 339.863281 330.488281 C 339.863281 330.488281 339.921875 330.488281 339.863281 330.488281 C 339.921875 330.488281 339.921875 330.488281 339.863281 330.488281 L 341.890625 330.488281 L 341.890625 335.472656 L 336.734375 335.472656 L 336.734375 330.199219 C 337.660156 330.371094 338.703125 330.488281 339.863281 330.488281 Z M 326.476562 327.417969 C 325.261719 327.242188 324.042969 327.1875 322.828125 327.1875 L 322.304688 327.1875 C 322.132812 327.1875 321.902344 327.1875 321.726562 327.242188 L 321.320312 327.242188 C 320.859375 327.242188 320.453125 327.300781 319.988281 327.359375 C 319.816406 327.359375 319.640625 327.417969 319.46875 327.417969 C 319.292969 327.417969 319.175781 327.476562 319.003906 327.476562 L 318.945312 327.476562 C 316.917969 327.765625 314.832031 328.285156 312.6875 328.980469 C 313.558594 319.25 314.136719 309.457031 314.484375 299.722656 C 314.832031 289.234375 314.890625 278.574219 314.65625 268.089844 L 333.375 268.089844 C 333.027344 268.667969 332.851562 269.246094 333.082031 269.652344 C 333.199219 269.828125 333.429688 270.058594 333.953125 270.175781 C 334.070312 270.175781 334.242188 270.230469 334.417969 270.230469 C 335.34375 270.230469 336.675781 269.828125 337.777344 269.132812 C 339.804688 278.34375 341.484375 287.671875 342.761719 297 C 344.207031 307.71875 345.195312 318.667969 345.65625 329.5625 C 344.441406 329.734375 343.222656 329.792969 342.007812 329.792969 C 341.371094 329.792969 340.675781 329.792969 340.035156 329.734375 L 339.921875 329.734375 C 338.761719 329.675781 337.546875 329.5625 336.386719 329.386719 L 336.210938 329.386719 C 334.242188 329.097656 332.503906 328.691406 330.882812 328.34375 C 329.375 327.9375 327.984375 327.648438 326.476562 327.417969 Z M 321.261719 327.996094 C 321.261719 327.996094 321.320312 327.996094 321.261719 327.996094 C 321.726562 327.996094 322.132812 327.9375 322.597656 327.9375 C 323.175781 327.9375 323.695312 327.9375 324.277344 327.996094 L 324.277344 335.527344 L 319.46875 335.527344 L 319.46875 328.171875 C 320.046875 328.113281 320.683594 328.054688 321.261719 327.996094 Z M 313.558594 251.171875 L 337.253906 251.171875 L 337.253906 262.699219 C 334.125 263.917969 333.546875 264.554688 333.664062 265.191406 C 333.722656 265.65625 334.183594 265.886719 335.113281 266.0625 L 334.9375 266.234375 L 313.613281 266.234375 Z M 349.019531 338.136719 C 348.4375 337.324219 347.453125 337.265625 346.527344 337.152344 C 345.484375 337.035156 344.152344 336.746094 342.472656 336.167969 C 342.527344 336.109375 342.585938 335.992188 342.585938 335.875 L 342.585938 330.429688 C 343.746094 330.371094 344.90625 330.3125 346.003906 330.140625 C 346.238281 330.140625 346.351562 329.910156 346.351562 329.734375 C 345.890625 318.726562 344.960938 307.660156 343.457031 296.769531 C 342.179688 287.324219 340.441406 277.765625 338.355469 268.4375 C 339.6875 267.160156 340.09375 265.539062 340.210938 264.613281 C 340.210938 264.378906 340.09375 264.207031 339.863281 264.148438 C 339.632812 264.089844 339.457031 264.265625 339.398438 264.496094 C 339.285156 265.308594 338.9375 266.871094 337.660156 267.972656 C 336.558594 268.957031 334.878906 269.421875 333.953125 269.246094 C 333.722656 269.1875 333.664062 269.132812 333.605469 269.132812 C 333.429688 268.898438 334.242188 267.625 336.097656 265.945312 C 336.210938 265.828125 336.269531 265.65625 336.210938 265.539062 C 336.15625 265.367188 336.039062 265.308594 335.863281 265.25 C 334.765625 265.132812 334.417969 264.960938 334.300781 264.902344 C 334.417969 264.726562 334.996094 264.207031 337.894531 263.105469 C 338.125 263.046875 338.183594 262.816406 338.125 262.585938 C 338.066406 262.46875 338.007812 262.410156 337.953125 262.351562 L 337.953125 250.589844 C 337.953125 250.359375 337.777344 250.1875 337.546875 250.1875 L 313.035156 250.1875 C 312.804688 250.1875 312.628906 250.359375 312.628906 250.589844 L 312.628906 266.464844 C 312.628906 266.699219 312.804688 266.871094 313.035156 266.871094 L 313.035156 267.914062 L 313.671875 267.914062 C 313.90625 278.402344 313.847656 289.003906 313.5 299.492188 C 313.152344 309.398438 312.515625 319.421875 311.644531 329.328125 C 311.644531 329.445312 311.703125 329.617188 311.820312 329.675781 C 311.933594 329.734375 312.050781 329.792969 312.222656 329.734375 C 314.367188 328.980469 316.453125 328.460938 318.539062 328.113281 L 318.539062 335.820312 C 316.917969 336.339844 315.644531 336.570312 314.714844 336.6875 C 313.5 336.804688 312.515625 336.804688 311.820312 337.554688 C 311.296875 338.078125 311.179688 338.832031 311.125 339.292969 L 324.855469 339.292969 L 324.855469 336.222656 C 324.914062 336.167969 324.972656 336.050781 324.972656 335.933594 L 324.972656 328.054688 C 325.378906 328.113281 325.839844 328.113281 326.246094 328.171875 C 327.695312 328.402344 329.085938 328.691406 330.535156 329.039062 C 332.097656 329.386719 333.78125 329.792969 335.75 330.082031 L 335.75 335.875 C 335.75 335.992188 335.808594 336.109375 335.921875 336.167969 L 335.921875 339.410156 L 349.308594 339.875 C 349.480469 339.46875 349.425781 338.714844 349.019531 338.136719 Z M 319.0625 227.820312 C 318.597656 226.199219 318.539062 224.402344 318.886719 222.722656 C 318.886719 222.605469 319.003906 222.492188 319.121094 222.433594 C 320.277344 222.027344 321.378906 221.390625 322.363281 220.636719 C 323.523438 219.710938 324.507812 218.609375 325.261719 217.277344 C 325.320312 217.160156 325.433594 217.101562 325.609375 217.101562 C 325.726562 217.101562 325.898438 217.160156 325.957031 217.277344 C 326.710938 218.203125 327.519531 219.128906 328.390625 219.941406 C 329.433594 220.925781 330.59375 221.796875 331.808594 222.550781 C 331.925781 222.605469 331.984375 222.722656 331.984375 222.839844 C 332.214844 224.578125 332.214844 227.183594 330.996094 229.964844 C 330.417969 231.296875 329.550781 232.515625 328.5625 233.558594 L 328.5625 236.511719 C 328.5625 236.742188 328.390625 236.917969 328.160156 236.917969 C 327.925781 236.917969 327.753906 236.742188 327.753906 236.511719 L 327.753906 233.441406 C 327.753906 233.324219 327.8125 233.210938 327.867188 233.152344 C 328.910156 232.109375 329.722656 230.949219 330.300781 229.675781 C 331.460938 227.183594 331.460938 224.808594 331.289062 223.1875 C 330.070312 222.433594 328.96875 221.5625 327.925781 220.578125 C 327.171875 219.882812 326.421875 219.074219 325.726562 218.320312 C 324.972656 219.476562 324.042969 220.519531 322.886719 221.390625 C 321.902344 222.144531 320.800781 222.78125 319.640625 223.246094 C 319.410156 224.75 319.46875 226.316406 319.871094 227.761719 C 320.453125 229.964844 321.609375 231.53125 322.480469 232.398438 C 322.539062 232.457031 322.597656 232.574219 322.597656 232.6875 L 322.597656 236.570312 C 322.597656 236.800781 322.421875 236.976562 322.191406 236.976562 C 321.957031 236.976562 321.785156 236.800781 321.785156 236.570312 L 321.785156 232.863281 C 320.859375 231.703125 319.640625 230.082031 319.0625 227.820312 Z M 100.382812 147.34375 C 100.382812 146.300781 101.253906 145.433594 102.296875 145.433594 C 103.339844 145.433594 104.207031 146.300781 104.207031 147.34375 C 104.207031 148.386719 103.339844 149.257812 102.296875 149.257812 C 101.253906 149.257812 100.382812 148.445312 100.382812 147.34375 Z M 93.488281 147.34375 C 93.488281 146.300781 94.355469 145.433594 95.398438 145.433594 C 96.441406 145.433594 97.3125 146.300781 97.3125 147.34375 C 97.3125 148.386719 96.441406 149.257812 95.398438 149.257812 C 94.355469 149.257812 93.488281 148.445312 93.488281 147.34375 Z M 86.535156 147.34375 C 86.535156 146.300781 87.402344 145.433594 88.445312 145.433594 C 89.488281 145.433594 90.359375 146.300781 90.359375 147.34375 C 90.359375 148.386719 89.488281 149.257812 88.445312 149.257812 C 87.402344 149.257812 86.535156 148.445312 86.535156 147.34375 Z M 154.269531 125.675781 C 157.109375 125.675781 159.425781 127.992188 159.425781 130.832031 C 159.425781 133.671875 157.109375 135.988281 154.269531 135.988281 C 151.429688 135.988281 149.113281 133.671875 149.113281 130.832031 C 149.054688 127.992188 151.375 125.675781 154.269531 125.675781 Z M 154.269531 136.855469 C 157.574219 136.855469 160.238281 134.195312 160.238281 130.890625 C 160.238281 127.585938 157.574219 124.921875 154.269531 124.921875 C 150.96875 124.921875 148.300781 127.585938 148.300781 130.890625 C 148.300781 134.195312 150.96875 136.855469 154.269531 136.855469 Z M 130.28125 322.203125 L 120.429688 321.855469 L 120.140625 317.625 L 129.066406 322.144531 C 129.179688 322.203125 129.355469 322.203125 129.472656 322.144531 L 130.339844 321.621094 Z M 77.265625 336.6875 L 76.570312 336.6875 L 76.570312 335.410156 L 77.089844 336.511719 C 77.148438 336.628906 77.207031 336.6875 77.265625 336.6875 Z M 100.5 327.53125 L 118.054688 336.6875 L 77.726562 336.6875 Z M 130.6875 323.011719 C 130.917969 323.011719 131.09375 322.839844 131.09375 322.664062 L 131.210938 320.8125 C 131.210938 320.636719 131.152344 320.523438 131.035156 320.464844 C 130.917969 320.40625 130.746094 320.40625 130.628906 320.464844 L 129.296875 321.332031 L 119.910156 316.582031 C 119.792969 316.523438 119.621094 316.523438 119.503906 316.582031 C 119.386719 316.640625 119.332031 316.8125 119.332031 316.929688 L 119.679688 321.621094 C 118.171875 321.042969 115.160156 319.882812 111.335938 318.4375 L 110.8125 318.261719 C 104.207031 315.710938 102.585938 315.132812 100.210938 315.132812 L 100.152344 315.132812 C 96.847656 315.132812 94.589844 316.292969 89.835938 318.957031 C 84.332031 321.96875 78.828125 325.15625 73.4375 328.402344 C 73.265625 328.515625 73.207031 328.75 73.265625 328.921875 L 75.699219 333.847656 L 75.699219 337.148438 C 75.699219 337.382812 75.875 337.554688 76.105469 337.554688 L 119.621094 337.554688 L 130.6875 339.757812 L 130.746094 339.757812 C 130.917969 339.757812 131.09375 339.640625 131.152344 339.410156 C 131.210938 339.175781 131.035156 339.003906 130.863281 338.945312 L 119.792969 336.746094 L 100.671875 326.777344 C 100.558594 326.722656 100.441406 326.722656 100.324219 326.777344 L 77.613281 335.933594 L 74.191406 328.921875 C 79.464844 325.792969 84.855469 322.664062 90.242188 319.710938 C 94.878906 317.160156 97.082031 316.003906 100.152344 316.003906 L 100.210938 316.003906 C 102.46875 316.003906 104.035156 316.582031 110.523438 319.074219 L 110.988281 319.246094 C 115.390625 320.925781 118.691406 322.203125 119.910156 322.664062 L 125.589844 325.445312 C 125.761719 325.5625 126.050781 325.445312 126.109375 325.273438 C 126.226562 325.097656 126.109375 324.808594 125.9375 324.75 L 121.9375 322.78125 Z M 134.628906 284.714844 C 134.28125 285.296875 133.644531 285.699219 132.890625 285.875 C 132.714844 285.933594 132.601562 286.046875 132.542969 286.222656 C 132.308594 287.960938 132.195312 289.699219 132.253906 291.4375 C 132.308594 292.769531 132.367188 294.101562 132.601562 295.433594 C 126.398438 299.835938 125.414062 299.375 125.242188 299.257812 C 124.949219 299.027344 125.183594 297.519531 125.414062 295.722656 C 125.472656 295.433594 125.472656 295.203125 125.53125 294.972656 C 125.644531 294.332031 125.703125 293.8125 125.703125 293.058594 C 125.703125 292.246094 125.589844 291.378906 125.414062 290.566406 C 125.355469 290.394531 125.183594 290.277344 125.007812 290.277344 L 124.949219 290.277344 C 123.851562 290.335938 122.980469 290.160156 122.34375 289.699219 C 120.722656 288.480469 120.835938 285.757812 120.953125 282.917969 C 121.011719 281.472656 121.183594 279.964844 121.53125 278.515625 C 122.515625 279.210938 123.617188 279.734375 124.835938 280.023438 C 126.980469 280.542969 128.832031 280.195312 130.050781 279.847656 C 129.992188 280.542969 129.992188 281.238281 130.109375 281.933594 C 130.222656 282.6875 130.339844 283.324219 130.917969 283.613281 C 131.5 283.90625 132.367188 283.730469 133.121094 283.035156 C 133.992188 283.035156 134.628906 283.5 134.742188 283.90625 C 134.859375 283.960938 134.800781 284.367188 134.628906 284.714844 Z M 128.082031 310.613281 L 120.140625 306.558594 C 119.910156 305.339844 119.679688 302.617188 121.300781 299.953125 C 122.226562 298.445312 123.445312 297.460938 124.429688 296.824219 C 124.199219 298.445312 124.199219 299.257812 124.660156 299.722656 C 124.835938 299.894531 125.066406 300.011719 125.472656 300.011719 C 125.992188 300.011719 126.804688 299.78125 128.023438 299.140625 L 128.023438 310.613281 Z M 133.003906 282.050781 C 132.890625 282.050781 132.832031 282.109375 132.714844 282.167969 C 132.136719 282.746094 131.558594 282.917969 131.324219 282.746094 C 131.152344 282.628906 131.035156 282.28125 130.976562 281.644531 C 130.863281 280.832031 130.863281 280.023438 130.976562 279.152344 C 130.976562 279.039062 130.917969 278.863281 130.863281 278.75 C 130.746094 278.632812 130.570312 278.632812 130.457031 278.691406 C 129.472656 279.097656 127.441406 279.617188 125.125 279.039062 C 123.851562 278.75 122.691406 278.109375 121.648438 277.300781 C 121.53125 277.183594 121.417969 277.183594 121.242188 277.242188 C 121.125 277.300781 121.011719 277.414062 120.953125 277.53125 C 120.546875 279.210938 120.257812 280.949219 120.199219 282.6875 C 120.082031 285.757812 119.96875 288.714844 121.878906 290.160156 C 122.574219 290.683594 123.558594 290.972656 124.660156 290.972656 C 124.777344 291.609375 124.835938 292.304688 124.894531 292.941406 C 124.894531 293.636719 124.835938 294.101562 124.71875 294.738281 C 124.660156 294.972656 124.660156 295.203125 124.601562 295.550781 C 124.601562 295.667969 124.546875 295.78125 124.546875 295.898438 C 123.386719 296.535156 121.765625 297.636719 120.605469 299.605469 C 118.75 302.617188 119.15625 305.746094 119.386719 306.964844 C 119.386719 307.078125 119.503906 307.195312 119.621094 307.253906 L 128.3125 311.714844 C 128.371094 311.773438 128.425781 311.773438 128.484375 311.773438 C 128.542969 311.773438 128.660156 311.773438 128.71875 311.714844 C 128.832031 311.65625 128.890625 311.484375 128.890625 311.367188 L 128.890625 298.851562 C 129.992188 298.214844 131.441406 297.289062 133.238281 296.015625 C 133.351562 295.898438 133.410156 295.78125 133.410156 295.609375 C 133.179688 294.21875 133.0625 292.828125 133.0625 291.4375 C 133.003906 289.8125 133.121094 288.25 133.296875 286.628906 C 134.164062 286.394531 134.917969 285.875 135.324219 285.179688 C 135.671875 284.601562 135.730469 284.019531 135.554688 283.558594 C 135.265625 282.628906 134.222656 282.050781 133.003906 282.050781 Z M 154.15625 313.800781 C 151.316406 313.800781 148.996094 311.484375 148.996094 308.644531 C 148.996094 305.804688 151.316406 303.488281 154.15625 303.488281 C 156.992188 303.488281 159.3125 305.804688 159.3125 308.644531 C 159.3125 311.484375 156.992188 313.800781 154.15625 313.800781 Z M 154.15625 302.617188 C 150.851562 302.617188 148.1875 305.285156 148.1875 308.585938 C 148.1875 311.890625 150.851562 314.554688 154.15625 314.554688 C 157.457031 314.554688 160.121094 311.890625 160.121094 308.585938 C 160.121094 305.339844 157.457031 302.617188 154.15625 302.617188 Z M 169.742188 272.316406 C 166.902344 272.316406 164.585938 270 164.585938 267.160156 C 164.585938 264.320312 166.902344 262.003906 169.742188 262.003906 C 172.582031 262.003906 174.898438 264.320312 174.898438 267.160156 C 174.957031 270 172.582031 272.316406 169.742188 272.316406 Z M 169.742188 261.136719 C 166.4375 261.136719 163.773438 263.800781 163.773438 267.101562 C 163.773438 270.40625 166.4375 273.070312 169.742188 273.070312 C 173.042969 273.070312 175.710938 270.40625 175.710938 267.101562 C 175.710938 263.859375 173.042969 261.136719 169.742188 261.136719 Z M 154.15625 272.316406 C 151.316406 272.316406 148.996094 270 148.996094 267.160156 C 148.996094 264.320312 151.316406 262.003906 154.15625 262.003906 C 156.992188 262.003906 159.3125 264.320312 159.3125 267.160156 C 159.3125 270 156.992188 272.316406 154.15625 272.316406 Z M 154.15625 261.136719 C 150.851562 261.136719 148.1875 263.800781 148.1875 267.101562 C 148.1875 270.40625 150.851562 273.070312 154.15625 273.070312 C 157.457031 273.070312 160.121094 270.40625 160.121094 267.101562 C 160.121094 263.859375 157.457031 261.136719 154.15625 261.136719 Z M 239.15625 169.882812 C 239.101562 169.648438 239.15625 169.417969 239.390625 169.359375 L 248.429688 165.710938 C 248.660156 165.652344 248.890625 165.710938 248.949219 165.941406 C 249.007812 166.175781 248.949219 166.40625 248.71875 166.464844 L 239.679688 170.113281 C 239.621094 170.113281 239.5625 170.171875 239.503906 170.171875 C 239.390625 170.113281 239.214844 170.054688 239.15625 169.882812 Z M 255.09375 164.492188 C 255.207031 164.667969 255.207031 164.898438 255.035156 165.074219 C 254.976562 165.132812 254.859375 165.132812 254.800781 165.132812 C 254.6875 165.132812 254.570312 165.074219 254.453125 164.957031 C 252.3125 162.117188 250.804688 158.933594 249.820312 155.570312 C 249.066406 152.90625 248.71875 150.183594 248.777344 147.460938 C 248.777344 147.230469 248.949219 147.054688 249.183594 147.054688 C 249.414062 147.054688 249.585938 147.230469 249.585938 147.460938 C 249.53125 150.125 249.878906 152.789062 250.574219 155.339844 C 251.558594 158.640625 253.0625 161.710938 255.09375 164.492188 Z M 108.148438 301.574219 L 108.496094 301.921875 C 108.902344 302.328125 109.304688 302.675781 109.710938 303.023438 L 107.625 305.804688 C 106.929688 305.574219 106.351562 305.167969 105.886719 304.648438 C 104.84375 303.429688 104.785156 301.808594 104.902344 301.171875 L 104.960938 301.226562 L 105.65625 301.921875 C 106.292969 302.503906 107.046875 302.964844 107.859375 303.3125 C 107.972656 303.371094 108.148438 303.371094 108.261719 303.257812 C 108.378906 303.140625 108.4375 302.964844 108.378906 302.851562 C 108.320312 302.269531 108.207031 301.867188 108.148438 301.574219 Z M 103.046875 296.652344 C 102.644531 297.113281 102.238281 297.519531 101.832031 297.984375 L 104.496094 300.359375 C 104.382812 300.476562 104.265625 300.648438 104.207031 300.878906 C 103.976562 301.808594 104.148438 303.777344 105.367188 305.167969 C 105.945312 305.863281 106.757812 306.382812 107.742188 306.675781 L 107.859375 306.675781 C 107.972656 306.675781 108.089844 306.617188 108.207031 306.5 L 110.695312 303.140625 C 110.753906 303.082031 110.8125 302.964844 110.753906 302.851562 C 110.753906 302.734375 110.695312 302.675781 110.582031 302.5625 C 110.058594 302.15625 109.597656 301.75 109.132812 301.285156 L 108.667969 300.824219 C 108.261719 300.417969 107.972656 300.128906 107.625 300.300781 C 107.566406 300.300781 107.511719 300.359375 107.511719 300.417969 C 106.003906 299.199219 104.496094 297.925781 103.046875 296.652344 Z M 142.21875 160.960938 L 148.1875 160.960938 C 145.925781 163.683594 144.421875 166.578125 142.21875 168.550781 Z M 274.617188 149.082031 C 272.417969 141.78125 268.476562 136.566406 265.464844 133.378906 L 269.636719 130.253906 C 272.128906 131.640625 279.429688 136.511719 282.152344 146.011719 C 283.773438 151.632812 283.195312 156.613281 282.210938 160.320312 L 282.210938 160.4375 C 281.570312 162.640625 280.820312 164.378906 280.238281 165.535156 L 275.953125 165.652344 C 276.648438 160.148438 276.242188 154.414062 274.617188 149.082031 Z M 266.101562 151.632812 C 267.839844 156.847656 270.738281 161.65625 274.503906 165.710938 L 252.714844 166.175781 C 250.746094 163.449219 249.183594 160.4375 248.140625 157.25 C 247.097656 154.121094 246.574219 150.820312 246.574219 147.519531 L 264.363281 134.25 C 263.667969 140.042969 264.246094 146.070312 266.101562 151.632812 Z M 275.140625 165.1875 C 271.488281 161.25 268.59375 156.441406 266.914062 151.34375 C 264.59375 144.5625 264.652344 138.421875 265.175781 134.25 C 268.128906 137.378906 271.78125 142.359375 273.867188 149.3125 C 275.371094 154.414062 275.835938 159.917969 275.140625 165.1875 Z M 285.511719 160.148438 L 283.078125 160.148438 C 284.0625 156.382812 284.527344 151.398438 282.90625 145.835938 C 280.007812 135.699219 272.128906 130.71875 269.75 129.441406 C 269.636719 129.382812 269.460938 129.382812 269.347656 129.5 L 245.9375 146.996094 C 245.820312 147.054688 245.761719 147.171875 245.761719 147.34375 C 245.761719 150.820312 246.285156 154.238281 247.386719 157.542969 C 248.488281 160.902344 250.109375 164.03125 252.195312 166.871094 C 252.253906 166.984375 252.367188 167.042969 252.542969 167.042969 L 280.472656 166.464844 C 280.644531 166.464844 280.761719 166.40625 280.820312 166.230469 C 281.398438 165.132812 282.265625 163.335938 282.90625 161.015625 L 285.570312 161.015625 L 285.570312 254.125 L 232.957031 254.125 C 233.132812 254.066406 233.246094 253.835938 233.1875 253.660156 L 227.800781 235.292969 C 227.742188 235.0625 227.511719 234.945312 227.277344 235.003906 C 227.046875 235.0625 226.929688 235.292969 226.988281 235.527344 L 227.972656 238.945312 L 189.90625 238.945312 L 191.761719 235.585938 C 191.875 235.410156 191.816406 235.121094 191.585938 235.0625 C 191.414062 234.945312 191.121094 235.003906 191.066406 235.238281 L 186.71875 242.941406 L 174.085938 220.347656 L 176.808594 216.347656 C 176.925781 216.175781 176.867188 215.941406 176.695312 215.769531 C 176.519531 215.652344 176.289062 215.710938 176.113281 215.886719 L 173.277344 220.058594 C 173.21875 220.171875 173.160156 220.347656 173.277344 220.460938 L 186.3125 243.695312 C 186.253906 243.871094 186.3125 244.042969 186.488281 244.160156 L 186.601562 244.160156 L 187.414062 245.605469 C 187.414062 245.664062 187.355469 245.722656 187.414062 245.78125 C 187.472656 245.953125 187.644531 246.128906 187.820312 246.128906 L 187.878906 246.128906 C 189.5 246.882812 191.007812 247.808594 192.339844 248.96875 C 194.136719 250.417969 195.46875 251.921875 195.640625 252.445312 C 195.351562 252.445312 194.425781 252.328125 191.414062 250.996094 C 191.296875 250.9375 191.121094 250.9375 191.007812 251.054688 C 190.890625 251.167969 190.832031 251.285156 190.832031 251.460938 C 191.066406 252.675781 191.46875 253.894531 192.050781 255.050781 C 192.804688 256.558594 193.789062 257.949219 195.003906 259.105469 C 193.152344 259.050781 189.964844 258.585938 187.066406 256.269531 C 184.113281 253.949219 183.011719 250.9375 182.546875 249.316406 C 182.546875 249.199219 182.488281 249.140625 182.375 249.082031 C 177.101562 245.433594 172.234375 241.261719 167.945312 236.570312 C 161.109375 229.152344 157.804688 225.328125 157.804688 219.824219 C 157.804688 213.742188 161.976562 208.933594 165.511719 205.917969 C 165.683594 205.804688 165.683594 205.515625 165.570312 205.339844 C 165.453125 205.167969 165.164062 205.167969 164.988281 205.28125 C 164.933594 205.339844 164.875 205.339844 164.875 205.398438 C 164.585938 205.167969 164.351562 204.875 164.0625 204.644531 C 168.757812 199.140625 172.929688 194.910156 176.117188 191.898438 C 182.199219 186.046875 184.574219 184.65625 186.253906 183.789062 C 191.527344 181.121094 196.570312 180.714844 199.929688 180.714844 C 199.929688 180.890625 200.046875 181.0625 200.21875 181.121094 L 200.335938 181.121094 C 200.507812 181.121094 200.683594 181.007812 200.742188 180.832031 C 201.667969 178.050781 202.191406 175.097656 202.363281 172.199219 C 202.539062 169.070312 202.246094 165.882812 201.496094 162.8125 C 201.4375 162.699219 201.378906 162.582031 201.261719 162.523438 C 198.308594 161.363281 196.335938 159.28125 196.511719 157.597656 C 196.511719 157.367188 196.628906 156.554688 197.324219 155.976562 C 198.191406 155.164062 199.582031 155.050781 200.972656 155.628906 C 201.03125 155.628906 201.089844 155.6875 201.148438 155.628906 C 203.753906 155.398438 207.636719 154.527344 211.519531 151.804688 C 215.34375 149.082031 217.488281 145.664062 218.585938 143.054688 C 219.628906 144.5625 220.847656 145.894531 222.355469 146.996094 C 223.28125 147.691406 224.324219 148.328125 225.367188 148.851562 C 225.484375 151.746094 225.425781 154.703125 225.191406 157.542969 C 224.730469 164.839844 223.6875 166.925781 222.703125 168.027344 C 221.542969 169.300781 219.976562 170.171875 217.949219 170.636719 C 217.777344 170.691406 217.660156 170.808594 217.660156 170.925781 C 217.195312 172.777344 217.023438 174.632812 217.082031 176.546875 C 217.140625 177.992188 217.3125 179.441406 217.660156 180.832031 C 217.71875 181.0625 217.949219 181.179688 218.125 181.121094 C 218.355469 181.0625 218.472656 180.832031 218.414062 180.660156 C 218.066406 179.324219 217.890625 177.933594 217.835938 176.546875 C 217.777344 174.808594 217.949219 173.070312 218.355469 171.386719 C 220.382812 170.867188 222.007812 169.941406 223.222656 168.550781 C 224.148438 167.507812 225.078125 165.828125 225.65625 160.84375 L 230.523438 160.84375 C 230.640625 161.308594 230.757812 161.828125 230.929688 162.292969 C 231.855469 165.363281 233.246094 168.316406 235.042969 171.039062 C 235.101562 171.15625 235.277344 171.214844 235.390625 171.214844 C 235.449219 171.214844 235.507812 171.214844 235.566406 171.15625 L 237.824219 170.171875 C 238.058594 170.054688 238.113281 169.824219 238.058594 169.648438 C 237.941406 169.417969 237.710938 169.359375 237.535156 169.417969 L 235.566406 170.289062 C 233.941406 167.738281 232.609375 164.957031 231.742188 162.058594 C 230.929688 159.453125 230.464844 156.730469 230.292969 153.949219 L 232.785156 152.847656 C 233.015625 152.730469 233.074219 152.5 232.957031 152.328125 C 232.84375 152.09375 232.609375 152.035156 232.4375 152.152344 L 229.710938 153.371094 C 229.539062 153.425781 229.480469 153.601562 229.480469 153.773438 C 229.597656 155.917969 229.886719 158.003906 230.351562 160.089844 L 225.773438 160.089844 C 225.832031 159.335938 225.886719 158.527344 226.003906 157.597656 C 226.121094 155.804688 226.179688 154.007812 226.179688 152.152344 C 227.511719 150.242188 229.191406 146.996094 228.496094 143.464844 C 227.222656 137.089844 218.53125 133.148438 211.808594 133.148438 C 199.292969 133.207031 198.65625 146.820312 182.257812 152.847656 C 167.65625 158.238281 159.949219 150.300781 150.96875 158.0625 C 150.214844 158.699219 149.578125 159.394531 148.941406 160.089844 C 148.882812 160.03125 148.765625 159.976562 148.648438 159.976562 L 142.335938 159.976562 L 142.335938 117.101562 L 285.628906 117.101562 L 285.628906 160.148438 Z M 222.121094 239.699219 C 222.410156 240.683594 223.339844 242.882812 225.714844 244.101562 C 226.988281 244.796875 228.320312 244.96875 229.25 244.96875 L 229.769531 244.96875 L 232.378906 253.835938 C 232.4375 253.949219 232.550781 254.066406 232.667969 254.066406 L 209.199219 254.066406 L 210.996094 251.402344 C 211.054688 251.34375 211.054688 251.285156 211.054688 251.167969 L 211.054688 239.640625 L 222.121094 239.640625 Z M 229.539062 244.160156 C 228.667969 244.21875 227.394531 244.101562 226.121094 243.40625 C 224.207031 242.363281 223.339844 240.625 222.992188 239.699219 L 228.207031 239.699219 Z M 210.242188 239.699219 L 210.242188 251.054688 L 208.851562 253.140625 L 208.851562 239.699219 Z M 187.183594 243.695312 L 189.441406 239.699219 L 195.238281 239.699219 C 194.65625 240.855469 193.730469 242.246094 192.109375 243.464844 C 190.949219 244.332031 189.558594 244.96875 188.050781 245.316406 Z M 142.21875 254.878906 L 183.011719 254.878906 C 183.242188 254.878906 183.417969 254.703125 183.417969 254.472656 C 183.417969 254.238281 183.242188 254.066406 183.011719 254.066406 L 142.21875 254.066406 L 142.21875 219.128906 C 145.636719 220.402344 150.386719 221.214844 157.050781 221.273438 C 157.632812 226.660156 161.570312 230.949219 167.308594 237.207031 C 171.59375 241.898438 176.460938 246.070312 181.734375 249.722656 C 182.199219 251.460938 183.417969 254.53125 186.488281 256.964844 C 189.730469 259.570312 193.324219 259.976562 195.238281 259.976562 L 195.988281 259.976562 C 196.164062 259.976562 196.28125 259.859375 196.335938 259.6875 C 196.394531 259.511719 196.335938 259.339844 196.222656 259.222656 C 194.714844 257.949219 193.554688 256.441406 192.6875 254.703125 C 192.28125 253.894531 191.933594 253.023438 191.761719 252.097656 C 195.410156 253.71875 196.046875 253.371094 196.335938 252.964844 C 196.976562 251.980469 194.078125 249.429688 192.804688 248.386719 C 191.644531 247.402344 190.371094 246.59375 189.035156 245.898438 C 190.3125 245.492188 191.527344 244.914062 192.628906 244.101562 C 194.542969 242.710938 195.585938 240.972656 196.164062 239.699219 L 208.042969 239.699219 L 208.042969 254.066406 L 193.152344 254.066406 C 192.917969 254.066406 192.746094 254.238281 192.746094 254.472656 C 192.746094 254.703125 192.917969 254.878906 193.152344 254.878906 L 285.511719 254.878906 L 285.511719 322.664062 L 142.21875 322.664062 Z M 290.089844 325.039062 C 290.089844 333.558594 283.136719 340.511719 274.617188 340.511719 L 152.648438 340.511719 C 144.128906 340.511719 137.175781 333.558594 137.175781 325.039062 L 137.175781 216.234375 C 138.277344 217.160156 139.667969 218.027344 141.40625 218.78125 L 141.40625 323.070312 C 141.40625 323.300781 141.582031 323.476562 141.8125 323.476562 L 285.917969 323.476562 C 286.148438 323.476562 286.324219 323.300781 286.324219 323.070312 L 286.324219 116.695312 C 286.324219 116.464844 286.148438 116.289062 285.917969 116.289062 L 141.8125 116.289062 C 141.582031 116.289062 141.40625 116.464844 141.40625 116.695312 L 141.40625 169.246094 C 140.304688 170.054688 139.03125 170.691406 137.46875 170.984375 C 137.351562 170.984375 137.234375 171.039062 137.175781 171.039062 L 137.175781 117.332031 C 137.175781 108.816406 144.128906 101.863281 152.648438 101.863281 L 274.617188 101.863281 C 283.136719 101.863281 290.089844 108.816406 290.089844 117.332031 Z M 148.1875 101.6875 C 141.347656 103.601562 136.367188 109.914062 136.367188 117.332031 L 136.367188 171.15625 C 132.425781 171.621094 130.28125 170.171875 126.746094 172.027344 C 122.632812 174.167969 119.679688 179.5 120.375 184.019531 C 121.070312 188.539062 124.835938 189 128.777344 194.449219 C 134.453125 202.269531 131.441406 208.121094 134.859375 213.566406 C 135.265625 214.203125 135.730469 214.84375 136.367188 215.480469 L 136.367188 325.039062 C 136.367188 334.019531 143.667969 341.320312 152.648438 341.320312 L 274.617188 341.320312 C 283.601562 341.320312 290.902344 334.019531 290.902344 325.039062 L 290.902344 117.332031 C 290.902344 108.351562 283.601562 101.050781 274.617188 101.050781 L 152.648438 101.050781 C 151.082031 101.109375 149.636719 101.285156 148.1875 101.6875 "/>
<path style=" stroke:none;fill-rule:nonzero;fill:rgb(100%,100%,100%);fill-opacity:1;" d="M 326.824219 174.519531 L 327.117188 171.503906 L 328.621094 171.738281 L 330.128906 174.808594 L 329.839844 176.3125 L 334.765625 175.910156 L 335.515625 177.414062 L 334.820312 179.441406 L 335.921875 180.3125 L 335.054688 182.109375 L 335.34375 184.019531 L 333.199219 185.351562 L 325.667969 185.0625 L 326.304688 182.109375 L 326.824219 174.519531 "/>
<path style=" stroke:none;fill-rule:nonzero;fill:rgb(5.879211%,5.488586%,4.708862%);fill-opacity:1;" d="M 50.957031 185.933594 C 50.78125 186.046875 50.726562 186.28125 50.839844 186.453125 C 51.1875 187.03125 51.132812 187.496094 51.070312 187.726562 C 50.839844 188.769531 49.566406 189.523438 48.058594 189.523438 L 41.628906 189.523438 L 41.628906 179.847656 C 41.859375 178.980469 41.976562 178.050781 42.035156 177.125 L 42.035156 175.910156 C 42.035156 175.214844 42.035156 174.75 42.207031 174.632812 C 42.441406 174.460938 43.074219 174.691406 43.484375 174.921875 C 45.277344 176.023438 44.933594 179.386719 44.871094 179.789062 C 44.871094 179.90625 44.871094 180.023438 44.988281 180.082031 C 45.046875 180.136719 45.164062 180.195312 45.277344 180.195312 C 46.609375 180.195312 47.886719 180.082031 49.101562 179.964844 L 49.21875 179.964844 C 49.914062 179.847656 50.550781 179.789062 50.898438 180.136719 C 51.132812 180.371094 51.1875 180.71875 51.246094 180.949219 C 51.421875 181.761719 51.015625 182.515625 50.839844 182.863281 C 50.78125 182.976562 50.78125 183.09375 50.78125 183.207031 C 50.839844 183.324219 50.898438 183.441406 51.015625 183.441406 C 51.246094 183.5 51.59375 183.671875 51.765625 184.019531 C 52 184.597656 51.765625 185.410156 50.957031 185.933594 Z M 51.710938 182.917969 C 51.941406 182.398438 52.175781 181.644531 52.058594 180.832031 C 52 180.484375 51.886719 179.964844 51.421875 179.558594 C 50.78125 178.980469 49.914062 179.09375 49.101562 179.210938 L 48.988281 179.210938 C 47.945312 179.328125 46.84375 179.441406 45.683594 179.441406 C 45.742188 178.226562 45.683594 175.386719 43.828125 174.285156 C 43.597656 174.171875 42.441406 173.476562 41.6875 173.996094 C 41.164062 174.34375 41.164062 175.039062 41.164062 175.964844 L 41.164062 177.125 C 41.105469 177.996094 40.992188 178.921875 40.816406 179.734375 L 40.816406 179.847656 L 37.570312 179.847656 L 37.570312 190.394531 L 48 190.394531 C 49.914062 190.394531 51.476562 189.351562 51.765625 187.960938 C 51.824219 187.613281 51.824219 187.089844 51.59375 186.453125 C 52.464844 185.757812 52.808594 184.65625 52.40625 183.789062 C 52.289062 183.324219 52 183.09375 51.710938 182.917969 Z M 96.328125 220.636719 L 88.445312 228.515625 L 80.566406 220.636719 C 78.597656 218.433594 78.710938 215.074219 80.742188 212.988281 C 82.828125 210.902344 86.246094 210.789062 88.445312 212.757812 C 90.53125 210.902344 93.546875 210.730469 95.515625 212.179688 C 98.007812 213.917969 98.585938 217.855469 96.328125 220.636719 Z M 326.824219 176.3125 C 327 175.5625 327.117188 174.75 327.171875 173.9375 L 327.171875 172.894531 C 327.171875 172.375 327.171875 171.910156 327.289062 171.796875 C 327.464844 171.679688 327.984375 171.851562 328.332031 172.027344 C 329.839844 172.953125 329.550781 175.851562 329.550781 176.140625 C 329.550781 176.257812 329.550781 176.371094 329.664062 176.429688 C 329.722656 176.488281 329.839844 176.546875 329.953125 176.546875 C 331.113281 176.546875 332.214844 176.488281 333.257812 176.3125 L 333.375 176.3125 C 333.953125 176.257812 334.472656 176.140625 334.765625 176.429688 C 334.9375 176.605469 334.996094 176.894531 335.054688 177.125 C 335.167969 177.820312 334.878906 178.457031 334.707031 178.746094 C 334.648438 178.863281 334.648438 178.980469 334.648438 179.09375 C 334.707031 179.210938 334.765625 179.328125 334.878906 179.328125 C 334.996094 179.386719 335.34375 179.5 335.460938 179.847656 C 335.632812 180.253906 335.460938 180.949219 334.765625 181.414062 C 334.589844 181.527344 334.53125 181.761719 334.648438 181.933594 C 334.878906 182.398438 334.878906 182.746094 334.878906 182.976562 C 334.707031 183.847656 333.605469 184.484375 332.332031 184.484375 L 326.824219 184.484375 Z M 326.421875 185.410156 L 332.332031 185.410156 C 334.011719 185.410156 335.402344 184.484375 335.632812 183.265625 C 335.691406 182.976562 335.691406 182.515625 335.515625 181.992188 C 336.269531 181.355469 336.558594 180.429688 336.210938 179.675781 C 336.039062 179.328125 335.808594 179.09375 335.574219 178.980469 C 335.808594 178.515625 335.980469 177.878906 335.863281 177.183594 C 335.808594 176.894531 335.75 176.429688 335.34375 176.023438 C 334.765625 175.503906 334.011719 175.617188 333.316406 175.675781 L 333.199219 175.675781 C 332.332031 175.792969 331.402344 175.851562 330.417969 175.851562 C 330.476562 174.75 330.417969 172.375 328.796875 171.390625 C 328.507812 171.214844 327.578125 170.695312 326.882812 171.15625 C 326.421875 171.503906 326.421875 172.085938 326.421875 172.894531 L 326.421875 173.882812 C 326.363281 174.632812 326.246094 175.386719 326.074219 176.140625 L 326.074219 176.257812 L 323.347656 176.257812 L 323.347656 185.351562 L 326.246094 185.351562 C 326.304688 185.410156 326.363281 185.410156 326.421875 185.410156 Z M 337.023438 233.269531 L 328.101562 233.269531 C 328.855469 232.515625 329.78125 231.355469 330.535156 229.734375 C 331.867188 226.777344 331.691406 224.054688 331.519531 222.839844 C 330.476562 222.203125 329.257812 221.332031 328.042969 220.171875 C 327 219.246094 326.1875 218.320312 325.550781 217.507812 C 325.03125 218.378906 324.101562 219.769531 322.539062 220.984375 C 321.261719 221.96875 320.046875 222.550781 319.175781 222.839844 C 319.003906 223.824219 318.828125 225.621094 319.351562 227.761719 C 319.988281 230.253906 321.320312 231.820312 322.074219 232.574219 L 322.074219 233.269531 L 314.253906 233.269531 C 312.976562 230.3125 313.035156 228.167969 313.613281 226.605469 C 314.195312 224.984375 315.003906 224.867188 316.105469 222.664062 C 317.730469 219.476562 316.742188 218.203125 318.019531 216.351562 C 319.988281 213.394531 324.507812 213.335938 325.433594 213.277344 C 329.085938 213.222656 333.953125 214.902344 335.054688 218.203125 C 335.921875 220.695312 333.953125 222.085938 335.226562 225.039062 C 335.980469 226.835938 337.140625 227.242188 337.546875 229.097656 C 337.894531 230.71875 337.429688 232.226562 337.023438 233.269531 Z M 194.078125 132.222656 L 164.351562 132.222656 L 164.351562 129.90625 L 194.078125 129.90625 Z M 138.335938 281.878906 C 138.625 285.007812 136.367188 288.25 132.65625 289.351562 C 132.714844 288.25 132.773438 287.207031 132.949219 286.222656 C 134.6875 285.933594 135.496094 284.484375 135.207031 283.558594 C 134.976562 282.921875 134.105469 282.398438 133.003906 282.457031 C 132.308594 283.09375 131.613281 283.382812 131.09375 283.09375 C 130.746094 282.921875 130.628906 282.398438 130.511719 281.703125 C 130.398438 281.125 130.339844 280.199219 130.511719 279.097656 C 129.703125 279.445312 127.558594 280.082031 124.949219 279.445312 C 123.210938 279.039062 121.996094 278.167969 121.300781 277.648438 C 121.011719 278.691406 120.835938 279.675781 120.722656 280.601562 C 119.96875 279.15625 119.273438 277.648438 118.519531 276.199219 C 121.011719 272.203125 125.589844 270.347656 129.46875 271.566406 C 133.292969 272.722656 134.859375 276.433594 135.148438 277.011719 C 135.554688 277.300781 138.046875 278.980469 138.335938 281.878906 Z M 164.179688 307.371094 L 195.46875 307.371094 L 195.46875 309.863281 L 164.179688 309.863281 Z M 180.75 295.609375 L 149.460938 295.609375 L 149.460938 293.117188 L 180.75 293.117188 Z M 149.460938 285.816406 L 277.804688 285.816406 L 277.804688 288.308594 L 149.460938 288.308594 Z M 149.460938 278.460938 L 277.804688 278.460938 L 277.804688 281.183594 L 149.460938 281.183594 Z M 179.824219 269.304688 L 229.25 269.304688 L 229.25 271.914062 L 179.824219 271.914062 Z M 209.546875 262.757812 L 209.546875 265.074219 L 179.824219 265.074219 L 179.824219 262.757812 Z M 230.464844 330.605469 C 230.464844 332.398438 229.015625 333.90625 227.164062 333.90625 L 199.988281 333.90625 C 198.191406 333.90625 196.683594 332.457031 196.683594 330.605469 C 196.683594 328.808594 198.132812 327.300781 199.988281 327.300781 L 227.164062 327.300781 C 228.960938 327.359375 230.464844 328.808594 230.464844 330.605469 Z M 197.613281 110.671875 L 230.753906 110.671875 C 231.742188 110.671875 232.492188 109.917969 232.492188 108.933594 C 232.492188 107.949219 231.742188 107.195312 230.753906 107.195312 L 197.613281 107.195312 C 196.628906 107.195312 195.875 107.949219 195.875 108.933594 C 195.875 109.917969 196.683594 110.671875 197.613281 110.671875 Z M 383.496094 237.730469 L 373.644531 227.878906 C 371.210938 225.15625 371.269531 220.925781 373.875 218.320312 C 376.484375 215.710938 380.714844 215.539062 383.496094 218.03125 C 386.160156 215.710938 389.867188 215.480469 392.359375 217.277344 C 395.429688 219.476562 396.183594 224.402344 393.34375 227.878906 Z M 77.03125 335.820312 C 76.742188 335.933594 76.453125 336.050781 76.164062 336.222656 L 76.164062 336.628906 L 75.234375 336.628906 C 74.308594 337.09375 73.324219 337.613281 72.28125 338.195312 C 70.890625 339.003906 69.671875 339.875 68.628906 340.683594 C 67.820312 339.292969 67.066406 338.019531 66.371094 336.863281 C 64.6875 336.917969 63.066406 336.917969 61.386719 336.976562 C 60.980469 326.085938 61.210938 320.582031 62.140625 320.464844 C 62.777344 320.40625 63.761719 322.957031 65.09375 328.230469 C 65.617188 328.691406 66.195312 329.15625 66.777344 329.792969 L 74.132812 329.792969 L 75.871094 332.921875 L 75.929688 333.734375 C 76.335938 334.429688 76.683594 335.125 77.03125 335.820312 "/>
<path style=" stroke:none;fill-rule:nonzero;fill:rgb(9.01947%,84.709167%,88.62915%);fill-opacity:1;" d="M 269.402344 157.195312 C 271.605469 155.339844 273.867188 153.429688 276.066406 151.574219 C 276.183594 151.34375 277.285156 149.429688 276.414062 147.171875 C 275.605469 145.027344 273.574219 144.273438 273.34375 144.160156 C 270.679688 144.273438 267.957031 144.390625 265.289062 144.503906 C 265.523438 146.363281 265.925781 148.679688 266.796875 151.226562 C 267.550781 153.601562 268.476562 155.574219 269.402344 157.195312 Z M 296.578125 336.109375 C 296.578125 330.371094 292.464844 325.851562 287.597656 325.332031 C 284.003906 324.984375 280.355469 326.953125 278.210938 330.3125 C 275.199219 328.171875 271.257812 327.765625 267.957031 329.269531 C 263.667969 331.242188 262.566406 335.527344 262.394531 336.109375 C 259.785156 336.515625 257.875 338.832031 257.929688 341.4375 C 257.988281 344.160156 260.191406 346.421875 262.972656 346.535156 L 296.523438 346.535156 C 299.476562 346.59375 301.910156 344.335938 302.085938 341.613281 C 302.316406 338.714844 299.765625 336.050781 296.578125 336.109375 Z M 143.667969 317.859375 C 143.957031 312.992188 145.117188 304.761719 141.8125 300.070312 C 140.191406 297.753906 137.929688 296.59375 137.929688 296.59375 C 135.902344 295.550781 133.992188 295.492188 132.949219 295.550781 C 131.152344 296.941406 129.644531 297.984375 128.425781 298.679688 L 128.425781 311.308594 L 119.734375 306.847656 C 119.5625 306.097656 119.039062 302.910156 120.894531 299.78125 C 122.167969 297.695312 123.90625 296.652344 124.777344 296.1875 C 124.835938 296.015625 124.894531 295.78125 124.949219 295.550781 C 124.023438 295.667969 121.648438 296.015625 119.5625 297.925781 C 116.316406 300.824219 116.375 304.9375 116.375 305.574219 L 110.695312 303.023438 L 107.914062 306.847656 L 113.246094 311.484375 L 112.550781 314.785156 L 106.175781 316.929688 L 120.082031 322.261719 L 119.679688 316.929688 L 129.238281 321.738281 L 130.804688 320.753906 C 130.628906 323.070312 130.457031 325.5625 130.398438 328.171875 C 130.339844 332.167969 130.515625 335.875 130.804688 339.292969 C 132.773438 339.640625 135.613281 339.875 138.914062 339.410156 C 141.582031 339.003906 143.78125 338.25 145.40625 337.554688 C 143.492188 329.328125 143.378906 322.609375 143.667969 317.859375 Z M 231.277344 188.65625 C 229.421875 186.222656 225.714844 182.804688 217.949219 180.832031 C 218.066406 181.585938 218.933594 189.582031 215.457031 191.4375 C 212.273438 193.175781 205.492188 189.523438 200.21875 180.832031 C 196.917969 180.777344 191.703125 181.179688 186.3125 183.902344 C 184.632812 184.773438 182.257812 186.164062 176.171875 192.015625 C 173.042969 195.027344 168.8125 199.316406 164.121094 204.761719 C 168.464844 208.757812 172.8125 212.757812 177.15625 216.8125 L 188.457031 205.226562 C 189.558594 209.398438 190.542969 214.378906 191.066406 220 C 191.644531 225.792969 191.644531 230.949219 191.355469 235.351562 C 197.378906 235.816406 203.929688 236.105469 210.9375 236.105469 C 216.734375 236.046875 222.179688 235.816406 227.335938 235.351562 C 226.582031 231.992188 226.003906 227.589844 226.46875 222.433594 C 226.640625 220.464844 226.988281 218.667969 227.335938 217.046875 C 227.742188 217.507812 228.089844 217.914062 228.496094 218.378906 L 239.96875 203.023438 C 238.984375 201.285156 237.476562 198.738281 235.621094 195.609375 C 233.246094 191.667969 232.03125 189.699219 231.277344 188.65625 "/>
<path style=" stroke:none;fill-rule:nonzero;fill:rgb(5.879211%,5.488586%,4.708862%);fill-opacity:1;" d="M 273.574219 144.503906 C 273.519531 144.503906 273.460938 144.503906 273.34375 144.5625 C 272.589844 144.792969 272.242188 146.476562 272.9375 148.445312 C 273.574219 150.414062 274.851562 151.574219 275.605469 151.34375 C 276.355469 151.109375 276.703125 149.429688 276.007812 147.460938 C 275.429688 145.609375 274.269531 144.503906 273.574219 144.503906 Z M 275.371094 152.152344 C 274.15625 152.152344 272.824219 150.761719 272.128906 148.679688 C 271.375 146.363281 271.78125 144.214844 273.054688 143.753906 C 274.328125 143.347656 275.953125 144.792969 276.761719 147.113281 C 277.515625 149.429688 277.109375 151.574219 275.835938 152.039062 C 275.660156 152.152344 275.546875 152.152344 275.371094 152.152344 "/>
<g clip-path="url(#clip1)" clip-rule="nonzero">
<path style=" stroke:none;fill-rule:nonzero;fill:rgb(5.879211%,5.488586%,4.708862%);fill-opacity:1;" d="M 96.964844 316.757812 C 97.082031 316.582031 97.082031 316.351562 96.90625 316.175781 C 48.289062 277.011719 22.796875 230.253906 26.851562 187.785156 C 29.519531 159.976562 49.738281 115.363281 86.1875 103.195312 C 90.648438 101.691406 102.644531 98.503906 117.996094 100.644531 C 126.285156 101.804688 133.410156 104.238281 139.902344 108.0625 C 140.074219 108.179688 140.363281 108.121094 140.480469 107.949219 C 140.597656 107.773438 140.539062 107.484375 140.363281 107.367188 C 133.757812 103.488281 126.515625 100.996094 118.171875 99.835938 C 102.644531 97.691406 90.476562 100.9375 86.011719 102.445312 C 65.152344 109.335938 51.363281 125.910156 43.425781 138.597656 C 34.039062 153.601562 27.546875 171.96875 26.042969 187.671875 C 23.898438 210.441406 29.691406 233.847656 43.367188 257.3125 C 55.417969 278.054688 73.785156 298.621094 96.386719 316.816406 C 96.441406 316.871094 96.558594 316.929688 96.617188 316.929688 C 96.734375 316.929688 96.847656 316.871094 96.964844 316.757812 Z M 264.1875 380.257812 C 257.757812 380.257812 251.210938 379.96875 244.546875 379.332031 C 215.226562 376.605469 191.761719 368.320312 181.734375 364.84375 C 164.003906 358.644531 145.464844 349.722656 128.136719 339.121094 C 127.964844 339.003906 127.90625 338.773438 128.023438 338.542969 C 128.136719 338.367188 128.371094 338.308594 128.601562 338.425781 C 145.925781 349.027344 164.410156 357.894531 182.082031 364.09375 C 243.328125 385.585938 297.914062 384.488281 344.324219 360.847656 C 368.660156 348.332031 426.023438 312.875 429.675781 252.792969 C 430.023438 247.289062 431.878906 198.042969 395.894531 169.882812 C 384.539062 161.019531 364.546875 150.53125 333.722656 151.226562 C 322.886719 151.457031 316.6875 153.371094 308.746094 155.804688 C 304.867188 157.019531 300.460938 158.351562 294.957031 159.628906 C 294.144531 159.800781 292.753906 160.148438 290.960938 160.496094 C 290.726562 160.554688 290.554688 160.382812 290.496094 160.207031 C 290.4375 159.976562 290.613281 159.800781 290.785156 159.742188 C 292.582031 159.339844 293.972656 159.046875 294.785156 158.875 C 300.230469 157.601562 304.632812 156.269531 308.515625 155.050781 C 316.511719 152.617188 322.769531 150.707031 333.722656 150.472656 C 364.722656 149.777344 384.941406 160.324219 396.359375 169.304688 C 432.6875 197.695312 430.777344 247.347656 430.429688 252.910156 C 428.75 281.066406 415.074219 307.140625 389.808594 330.429688 C 380.828125 338.714844 365.707031 350.824219 344.5 361.601562 C 320.105469 374 293.160156 380.257812 264.1875 380.257812 "/>
</g>
<g clip-path="url(#clip2)" clip-rule="nonzero">
<path style=" stroke:none;fill-rule:nonzero;fill:rgb(100%,8.628845%,8.628845%);fill-opacity:1;" d="M 398.328125 63.34375 C 398.328125 64.585938 398.265625 65.820312 398.144531 67.058594 C 398.023438 68.292969 397.839844 69.515625 397.597656 70.734375 C 397.359375 71.949219 397.054688 73.152344 396.695312 74.339844 C 396.335938 75.527344 395.917969 76.691406 395.445312 77.839844 C 394.96875 78.984375 394.441406 80.105469 393.855469 81.199219 C 393.269531 82.292969 392.632812 83.355469 391.945312 84.386719 C 391.253906 85.417969 390.515625 86.414062 389.730469 87.371094 C 388.941406 88.332031 388.109375 89.25 387.234375 90.125 C 386.355469 91.003906 385.4375 91.835938 384.480469 92.621094 C 383.519531 93.410156 382.527344 94.148438 381.496094 94.835938 C 380.464844 95.527344 379.402344 96.164062 378.304688 96.746094 C 377.210938 97.332031 376.09375 97.863281 374.945312 98.335938 C 373.800781 98.8125 372.632812 99.226562 371.445312 99.589844 C 370.257812 99.949219 369.058594 100.25 367.839844 100.492188 C 366.625 100.734375 365.398438 100.914062 364.164062 101.035156 C 362.929688 101.160156 361.691406 101.21875 360.453125 101.21875 C 359.210938 101.21875 357.972656 101.160156 356.738281 101.035156 C 355.503906 100.914062 354.28125 100.734375 353.0625 100.492188 C 351.847656 100.25 350.644531 99.949219 349.457031 99.589844 C 348.269531 99.226562 347.105469 98.8125 345.957031 98.335938 C 344.8125 97.863281 343.691406 97.332031 342.597656 96.746094 C 341.503906 96.164062 340.441406 95.527344 339.410156 94.835938 C 338.378906 94.148438 337.382812 93.410156 336.425781 92.621094 C 335.464844 91.835938 334.546875 91.003906 333.671875 90.125 C 332.792969 89.25 331.960938 88.332031 331.175781 87.371094 C 330.386719 86.414062 329.648438 85.417969 328.960938 84.386719 C 328.269531 83.355469 327.632812 82.292969 327.050781 81.199219 C 326.464844 80.105469 325.933594 78.984375 325.460938 77.839844 C 324.984375 76.691406 324.566406 75.527344 324.207031 74.339844 C 323.847656 73.152344 323.546875 71.949219 323.304688 70.734375 C 323.0625 69.515625 322.882812 68.292969 322.757812 67.058594 C 322.636719 65.820312 322.578125 64.585938 322.578125 63.34375 C 322.578125 62.105469 322.636719 60.867188 322.757812 59.632812 C 322.882812 58.398438 323.0625 57.171875 323.304688 55.957031 C 323.546875 54.738281 323.847656 53.535156 324.207031 52.351562 C 324.566406 51.164062 324.984375 49.996094 325.460938 48.851562 C 325.933594 47.703125 326.464844 46.585938 327.050781 45.488281 C 327.632812 44.394531 328.269531 43.332031 328.960938 42.300781 C 329.648438 41.269531 330.386719 40.277344 331.175781 39.316406 C 331.960938 38.359375 332.792969 37.441406 333.671875 36.5625 C 334.546875 35.683594 335.464844 34.851562 336.425781 34.066406 C 337.382812 33.28125 338.378906 32.542969 339.410156 31.851562 C 340.441406 31.164062 341.503906 30.527344 342.597656 29.941406 C 343.691406 29.355469 344.8125 28.828125 345.957031 28.351562 C 347.105469 27.878906 348.269531 27.460938 349.457031 27.101562 C 350.644531 26.738281 351.847656 26.4375 353.0625 26.195312 C 354.28125 25.957031 355.503906 25.773438 356.738281 25.652344 C 357.972656 25.53125 359.210938 25.46875 360.453125 25.46875 C 361.691406 25.46875 362.929688 25.53125 364.164062 25.652344 C 365.398438 25.773438 366.625 25.957031 367.839844 26.195312 C 369.058594 26.4375 370.257812 26.738281 371.445312 27.101562 C 372.632812 27.460938 373.800781 27.878906 374.945312 28.351562 C 376.09375 28.828125 377.210938 29.355469 378.304688 29.941406 C 379.402344 30.527344 380.464844 31.164062 381.496094 31.851562 C 382.527344 32.542969 383.519531 33.28125 384.480469 34.066406 C 385.4375 34.851562 386.355469 35.683594 387.234375 36.5625 C 388.109375 37.441406 388.941406 38.359375 389.730469 39.316406 C 390.515625 40.277344 391.253906 41.269531 391.945312 42.300781 C 392.632812 43.332031 393.269531 44.394531 393.855469 45.488281 C 394.441406 46.585938 394.96875 47.703125 395.445312 48.851562 C 395.917969 49.996094 396.335938 51.164062 396.695312 52.351562 C 397.054688 53.535156 397.359375 54.738281 397.597656 55.957031 C 397.839844 57.171875 398.023438 58.398438 398.144531 59.632812 C 398.265625 60.867188 398.328125 62.105469 398.328125 63.34375 Z M 398.328125 63.34375 "/>
</g>
<path style=" stroke:none;fill-rule:nonzero;fill:rgb(98.039246%,98.039246%,98.039246%);fill-opacity:1;" d="M 340.253906 50.71875 L 335.203125 50.71875 C 333.808594 50.71875 332.675781 51.851562 332.675781 53.246094 L 332.675781 73.445312 C 332.675781 74.839844 333.808594 75.96875 335.203125 75.96875 L 340.253906 75.96875 C 344.429688 75.96875 347.828125 72.570312 347.828125 68.394531 C 347.828125 66.445312 347.070312 64.6875 345.859375 63.34375 C 347.070312 62 347.828125 60.242188 347.828125 58.292969 C 347.828125 54.117188 344.429688 50.71875 340.253906 50.71875 Z M 337.726562 55.769531 L 340.253906 55.769531 C 341.644531 55.769531 342.777344 56.902344 342.777344 58.292969 C 342.777344 59.6875 341.644531 60.820312 340.253906 60.820312 L 337.726562 60.820312 Z M 340.253906 70.917969 L 337.726562 70.917969 L 337.726562 65.871094 L 340.253906 65.871094 C 341.644531 65.871094 342.777344 67 342.777344 68.394531 C 342.777344 69.789062 341.644531 70.917969 340.253906 70.917969 Z M 340.253906 70.917969 "/>
<path style=" stroke:none;fill-rule:nonzero;fill:rgb(98.039246%,98.039246%,98.039246%);fill-opacity:1;" d="M 365.503906 50.71875 C 364.109375 50.71875 362.976562 51.851562 362.976562 53.246094 L 362.976562 68.394531 C 362.976562 69.789062 361.847656 70.917969 360.453125 70.917969 C 359.058594 70.917969 357.925781 69.789062 357.925781 68.394531 L 357.925781 53.246094 C 357.925781 51.851562 356.796875 50.71875 355.402344 50.71875 C 354.007812 50.71875 352.878906 51.851562 352.878906 53.246094 L 352.878906 68.394531 C 352.878906 72.570312 356.277344 75.96875 360.453125 75.96875 C 364.628906 75.96875 368.027344 72.570312 368.027344 68.394531 L 368.027344 53.246094 C 368.027344 51.851562 366.894531 50.71875 365.503906 50.71875 Z M 365.503906 50.71875 "/>
<path style=" stroke:none;fill-rule:nonzero;fill:rgb(98.039246%,98.039246%,98.039246%);fill-opacity:1;" d="M 386.832031 50.988281 C 385.585938 50.371094 384.070312 50.867188 383.445312 52.117188 L 380.652344 57.699219 L 377.859375 52.117188 C 377.234375 50.867188 375.71875 50.371094 374.472656 50.988281 C 373.222656 51.613281 372.71875 53.128906 373.339844 54.375 L 378.128906 63.941406 L 378.128906 73.445312 C 378.128906 74.839844 379.257812 75.96875 380.652344 75.96875 C 382.046875 75.96875 383.175781 74.839844 383.175781 73.445312 L 383.175781 63.941406 L 387.960938 54.371094 C 388.582031 53.128906 388.082031 51.609375 386.832031 50.988281 Z M 386.832031 50.988281 "/>
</g>
</svg>
